<svg width="36" height="36" viewBox="0 0 36 36" fill="none" xmlns="http://www.w3.org/2000/svg">
<path d="M18.4393 7.9391C19.0251 7.35331 19.9749 7.35331 20.5607 7.9391L29.5607 16.9391C29.842 17.2204 30 17.6019 30 17.9998C30 18.3976 29.842 18.7791 29.5607 19.0604L20.5607 28.0604C19.9749 28.6462 19.0251 28.6462 18.4393 28.0604C17.8536 27.4746 17.8536 26.5249 18.4393 25.9391L24.8787 19.4998L7.5 19.4998C6.67157 19.4998 6 18.8282 6 17.9998C6 17.1713 6.67157 16.4998 7.5 16.4998H24.8787L18.4393 10.0604C17.8536 9.47463 17.8536 8.52488 18.4393 7.9391Z" fill="#142251"/>
</svg>
