<svg width="36" height="36" viewBox="0 0 36 36" fill="none" xmlns="http://www.w3.org/2000/svg">
<g opacity="0.22">
<path d="M17.5607 7.9391C18.1464 8.52488 18.1464 9.47463 17.5607 10.0604L11.1213 16.4998H28.5C29.3284 16.4998 30 17.1713 30 17.9998C30 18.8282 29.3284 19.4998 28.5 19.4998H11.1213L17.5607 25.9391C18.1464 26.5249 18.1464 27.4746 17.5607 28.0604C16.9749 28.6462 16.0251 28.6462 15.4393 28.0604L6.43934 19.0604C6.15804 18.7791 6 18.3976 6 17.9998C6 17.6019 6.15804 17.2204 6.43934 16.9391L15.4393 7.9391C16.0251 7.35331 16.9749 7.35331 17.5607 7.9391Z" fill="#142251"/>
</g>
</svg>
