<svg width="339" height="278" viewBox="0 0 339 278" fill="none" xmlns="http://www.w3.org/2000/svg">
<path d="M59.6258 70.1018L1.49805 104.584L27.1636 153.039L81 121.956L59.6258 70.1018Z" fill="white" stroke="#989EB1" stroke-width="0.983985"/>
<path d="M71.3856 53.5127L13.2578 83.8639L22.1234 136.45L75.9599 105.367L71.3856 53.5127Z" fill="white" stroke="#142251" stroke-width="0.983985"/>
<path d="M65.8423 88.1207L65.8423 81.3808L26.6984 103.873L26.6984 151.163C26.6984 152.883 27.6591 153.723 28.8441 153.039L82.6805 121.957C83.8655 121.272 84.8262 119.323 84.8262 117.603L84.8262 76.8218L65.8423 88.1207Z" fill="white" stroke="#989EB1" stroke-width="0.983985"/>
<path d="M22.834 91.4807L52.5699 75.7522" stroke="#142251" stroke-width="0.983985"/>
<path d="M22.9824 96.1541L41.1263 86.5645" stroke="#142251" stroke-width="0.983985"/>
<g clip-path="url(#clip0_0_4750)">
<path d="M106.756 154.106L46.0742 189.141C42.2341 191.358 42.2316 194.951 46.0685 197.167L176.175 272.284C180.012 274.499 186.236 274.497 190.076 272.28L250.758 237.246C254.598 235.029 254.6 231.435 250.763 229.22L120.657 154.103C116.82 151.888 110.596 151.889 106.756 154.106Z" fill="white" stroke="#142251" stroke-width="0.983985"/>
<path d="M88.4257 163.96L63.1415 178.558C60.6978 179.969 60.6962 182.255 63.1379 183.665C65.5796 185.075 69.54 185.074 71.9837 183.663L97.2679 169.065C99.7116 167.654 99.7132 165.368 97.2715 163.958C94.8298 162.548 90.8694 162.549 88.4257 163.96Z" fill="#142251"/>
<path d="M83.9972 170.892L75.1477 176.002C74.7986 176.203 74.7984 176.53 75.1472 176.731C75.496 176.932 76.0618 176.932 76.4109 176.731L85.2603 171.622C85.6094 171.42 85.6097 171.093 85.2609 170.892C84.912 170.691 84.3463 170.691 83.9972 170.892Z" fill="white"/>
<path d="M172.751 198.049L144.307 214.471C142.387 215.58 142.385 217.376 144.304 218.484L154.409 224.318C156.328 225.426 159.439 225.425 161.359 224.317L189.804 207.894C191.724 206.785 191.725 204.989 189.807 203.881L179.702 198.047C177.783 196.939 174.671 196.94 172.751 198.049Z" stroke="#E4E7F1" stroke-width="0.491992"/>
<path d="M144.933 223.956C140.224 221.237 132.586 221.239 127.873 223.96C123.16 226.681 123.157 231.09 127.866 233.809C132.575 236.528 140.213 236.526 144.926 233.805C149.639 231.084 149.642 226.674 144.933 223.956Z" stroke="#E4E7F1" stroke-width="0.491992"/>
<path d="M129.472 197.877L101.027 214.299C98.9324 215.508 98.931 217.468 101.024 218.677L111.129 224.511C113.222 225.719 116.617 225.718 118.711 224.509L147.156 208.087C149.251 206.877 149.252 204.917 147.159 203.709L137.054 197.875C134.961 196.666 131.566 196.667 129.472 197.877Z" fill="#E4E7F1"/>
<path d="M163.598 188.384C158.714 185.564 150.794 185.566 145.906 188.388C141.019 191.21 141.015 195.783 145.899 198.602C150.782 201.422 158.703 201.42 163.59 198.598C168.478 195.776 168.481 191.203 163.598 188.384Z" fill="#E4E7F1"/>
<path d="M128.856 173.435L79.5524 201.901C77.4578 203.11 77.4564 205.07 79.5493 206.278L89.6546 212.113C91.7475 213.321 95.1422 213.32 97.2368 212.111L146.541 183.645C148.635 182.436 148.637 180.476 146.544 179.268L136.439 173.433C134.346 172.225 130.951 172.226 128.856 173.435Z" fill="#E4E7F1"/>
<path d="M193.278 210.629L143.974 239.095C141.88 240.304 141.878 242.264 143.971 243.472L154.077 249.307C156.169 250.515 159.564 250.514 161.659 249.305L210.963 220.839C213.057 219.63 213.059 217.67 210.966 216.462L200.86 210.627C198.768 209.419 195.373 209.42 193.278 210.629Z" fill="#E4E7F1"/>
<path d="M207.872 253.581C204.449 254.455 200.677 254.773 196.965 254.501C193.254 254.228 189.742 253.376 186.809 252.036C183.876 250.695 181.633 248.918 180.323 246.894C179.012 244.872 178.683 242.68 179.372 240.556C180.061 238.432 181.741 236.456 184.23 234.842C186.72 233.228 189.925 232.037 193.5 231.397C197.075 230.756 200.884 230.692 204.517 231.21C208.149 231.728 211.466 232.809 214.111 234.336" stroke="#142251" stroke-width="0.983985" stroke-linecap="round"/>
<path d="M174.037 245.28C173.032 241.91 174.058 238.441 176.944 235.453C179.829 232.464 184.401 230.136 189.897 228.856C195.393 227.576 201.481 227.421 207.147 228.418C212.813 229.415 217.714 231.503 221.035 234.334" stroke="#E4E7F1" stroke-width="0.983985" stroke-linecap="round"/>
<path d="M190.06 249.169C188.031 248.17 186.513 246.87 185.67 245.409C184.827 243.947 184.691 242.38 185.277 240.877C185.864 239.374 187.15 237.992 188.997 236.879C190.843 235.766 193.181 234.965 195.757 234.563C198.334 234.16 201.05 234.171 203.615 234.595C206.18 235.019 208.495 235.839 210.311 236.967C212.127 238.094 213.375 239.487 213.92 240.995C214.465 242.503 214.286 244.069 213.403 245.523" stroke="#AFB4C4" stroke-width="0.983985" stroke-linecap="round"/>
<path d="M191.866 239.211C192.977 238.401 194.45 237.78 196.126 237.417C197.802 237.054 199.617 236.961 201.377 237.15C203.136 237.339 204.772 237.801 206.109 238.488C207.446 239.174 208.433 240.059 208.962 241.045C209.492 242.032 209.545 243.084 209.115 244.087C208.686 245.09 207.79 246.007 206.525 246.738C205.259 247.47 203.672 247.988 201.936 248.237C200.198 248.486 198.376 248.457 196.667 248.152" stroke="#142251" stroke-width="0.983985" stroke-linecap="round"/>
<path d="M194.029 244.812C193.317 244.18 192.945 243.439 192.962 242.684C192.979 241.929 193.383 241.194 194.124 240.571C194.864 239.948 195.907 239.466 197.122 239.185C198.337 238.905 199.667 238.838 200.947 238.995C202.226 239.151 203.396 239.522 204.309 240.063C205.222 240.603 205.836 241.287 206.075 242.03C206.314 242.772 206.166 243.539 205.65 244.233C205.135 244.927 204.274 245.517 203.177 245.929" stroke="#AFB4C4" stroke-width="0.983985" stroke-linecap="round"/>
</g>
<g clip-path="url(#clip1_0_4750)">
<path d="M159.918 15.4343L337.623 118.032L337.623 233.024C337.623 237.207 334.686 238.903 331.063 236.811L166.478 141.788C162.855 139.696 159.918 134.61 159.918 130.427L159.918 15.4343Z" fill="white" stroke="#989EB1" stroke-width="0.983985"/>
<path d="M159.32 8.89304C159.32 4.32956 162.524 2.47984 166.476 4.76158L178.403 11.6473C182.355 13.9291 185.559 19.4782 185.559 24.0417L185.559 30.9275L159.32 15.7788L159.32 8.89304Z" fill="#E4E7F1"/>
<path d="M241.614 142.132L176.018 104.261C174.207 103.215 172.738 104.063 172.738 106.154L172.738 117.172C172.738 119.263 174.207 121.807 176.018 122.852L241.614 160.724C243.425 161.77 244.893 160.922 244.893 158.83L244.893 147.813C244.893 145.722 243.425 143.178 241.614 142.132Z" stroke="#E4E7F1" stroke-width="0.491992"/>
<path d="M297.669 174.495L255.926 150.395C254.115 149.349 252.646 150.197 252.646 152.289L252.646 163.306C252.646 165.398 254.115 167.941 255.926 168.987L297.669 193.087C299.48 194.133 300.949 193.285 300.949 191.193L300.949 180.176C300.949 178.085 299.48 175.541 297.669 174.495Z" stroke="#E4E7F1" stroke-width="0.491992"/>
<path d="M324.802 199.456C324.802 194.322 321.198 188.08 316.752 185.513C312.305 182.946 308.701 185.027 308.701 190.161C308.701 195.294 312.305 201.537 316.752 204.104C321.198 206.671 324.802 204.59 324.802 199.456Z" stroke="#E4E7F1" stroke-width="0.491992"/>
<path d="M241.613 114.245L176.017 76.3733C174.041 75.2325 172.439 76.1573 172.439 78.4391L172.439 89.4563C172.439 91.738 174.041 94.5126 176.017 95.6535L241.613 133.525C243.589 134.666 245.191 133.741 245.191 131.459L245.191 120.442C245.191 118.16 243.589 115.386 241.613 114.245Z" fill="#E4E7F1"/>
<path d="M321.52 132.837L176.017 48.8304C174.041 47.6895 172.439 48.6144 172.439 50.8961L172.439 61.9133C172.439 64.1951 174.041 66.9696 176.017 68.1105L321.52 152.117C323.497 153.258 325.098 152.333 325.098 150.051L325.098 139.034C325.098 136.752 323.497 133.978 321.52 132.837Z" fill="#E4E7F1"/>
<path d="M297.668 146.608L255.926 122.508C253.95 121.367 252.348 122.292 252.348 124.574L252.348 135.591C252.348 137.873 253.95 140.647 255.926 141.788L297.668 165.888C299.644 167.029 301.246 166.104 301.246 163.823L301.246 152.805C301.246 150.524 299.644 147.749 297.668 146.608Z" fill="#E4E7F1"/>
<path d="M325.099 172.086C325.099 166.761 321.362 160.287 316.751 157.625C312.14 154.963 308.402 157.121 308.402 162.445C308.402 167.77 312.14 174.244 316.751 176.906C321.362 179.568 325.099 177.41 325.099 172.086Z" fill="#E4E7F1"/>
<g filter="url(#filter0_i_0_4750)">
<path d="M159.32 8.89304C159.32 4.32956 162.524 2.47984 166.476 4.76158L331.062 99.785C335.013 102.067 338.218 107.616 338.218 112.179L338.218 119.065L159.32 15.7788L159.32 8.89304Z" fill="#989EB1"/>
</g>
<path d="M167.072 14.7459C168.06 15.3163 168.861 14.8539 168.861 13.713C168.861 12.5721 168.06 11.1848 167.072 10.6144C166.084 10.044 165.283 10.5064 165.283 11.6473C165.283 12.7881 166.084 14.1754 167.072 14.7459Z" fill="white"/>
<path d="M172.439 17.8445C173.427 18.4149 174.228 17.9525 174.228 16.8116C174.228 15.6708 173.427 14.2835 172.439 13.713C171.451 13.1426 170.65 13.605 170.65 14.7459C170.65 15.8868 171.451 17.2741 172.439 17.8445Z" fill="white"/>
<path d="M177.807 20.9431C178.795 21.5136 179.596 21.0511 179.596 19.9103C179.596 18.7694 178.795 17.3821 177.807 16.8117C176.819 16.2412 176.018 16.7037 176.018 17.8445C176.018 18.9854 176.819 20.3727 177.807 20.9431Z" fill="white"/>
</g>
<circle r="17.7653" transform="matrix(0.866025 -0.5 0.866025 0.5 137.208 78.3015)" fill="#F2F3F8"/>
<g clip-path="url(#clip2_0_4750)">
<path d="M136.564 76.1944C136.367 76.0803 136.367 75.8953 136.564 75.7812C136.792 75.6497 137.062 75.5469 137.367 75.4714C137.699 75.3893 138.022 75.3652 138.353 75.3652C138.684 75.3652 139.008 75.3893 139.34 75.4714C139.645 75.5469 139.914 75.6497 140.142 75.7812C140.37 75.9128 140.548 76.0685 140.679 76.2446C140.819 76.4338 140.862 76.6182 140.863 76.8069L140.898 77.234C140.898 77.2386 140.899 77.2433 140.899 77.2479L140.899 78.57C140.899 78.7612 140.857 78.9478 140.715 79.1395C140.584 79.3156 140.406 79.4713 140.178 79.6028C139.95 79.7344 139.68 79.8372 139.375 79.9127C139.043 79.9948 138.72 80.0189 138.389 80.0189C138.058 80.0189 137.734 79.9948 137.402 79.9127C137.092 79.8357 136.823 79.7318 136.564 79.5822C136.336 79.4506 136.158 79.295 136.028 79.1189C135.885 78.9272 135.844 78.7406 135.844 78.5493L135.844 78.0949C135.844 77.9335 136.07 77.8027 136.35 77.8027C136.629 77.8027 136.856 77.9335 136.856 78.0949L136.856 78.5493C136.856 78.6886 136.885 78.7911 136.958 78.8887C137.042 79.0018 137.15 79.094 137.28 79.169C137.45 79.2673 137.611 79.3286 137.801 79.3756C137.97 79.4174 138.148 79.4346 138.389 79.4346C138.63 79.4346 138.808 79.4174 138.977 79.3756C139.173 79.3272 139.332 79.2647 139.462 79.1897C139.592 79.1146 139.7 79.0224 139.784 78.9094C139.857 78.8118 139.887 78.7092 139.887 78.57L139.887 77.2549L139.851 76.828C139.851 76.8234 139.851 76.8187 139.851 76.8141C139.851 76.6748 139.821 76.5723 139.749 76.4747C139.665 76.3616 139.557 76.2694 139.427 76.1944C139.297 76.1193 139.137 76.0569 138.941 76.0084C138.772 75.9666 138.594 75.9494 138.353 75.9494C138.112 75.9494 137.934 75.9666 137.765 76.0084C137.569 76.0569 137.41 76.1193 137.28 76.1944C137.082 76.3085 136.762 76.3085 136.564 76.1944ZM135.348 77.5164C135.218 77.5915 135.11 77.6837 135.026 77.7968C134.953 77.8943 134.923 77.9969 134.923 78.1362L134.923 79.4926L134.959 79.9195C134.959 79.9241 134.959 79.9287 134.959 79.9333C134.959 80.0726 134.989 80.1752 135.061 80.2727C135.145 80.3858 135.254 80.478 135.383 80.5531C135.513 80.6281 135.673 80.6905 135.869 80.739C136.038 80.7808 136.216 80.798 136.457 80.798C136.698 80.798 136.876 80.7808 137.045 80.739C137.241 80.6905 137.4 80.6281 137.53 80.5531C137.728 80.439 138.048 80.439 138.246 80.5531C138.443 80.6672 138.443 80.8521 138.246 80.9662C138.018 81.0977 137.748 81.2006 137.443 81.276C137.111 81.3582 136.788 81.3823 136.457 81.3823C136.126 81.3823 135.802 81.3582 135.47 81.276C135.165 81.2006 134.896 81.0977 134.668 80.9662C134.44 80.8347 134.262 80.679 134.131 80.5029C133.991 80.3136 133.948 80.1293 133.947 79.9405L133.912 79.5134C133.912 79.5088 133.911 79.5042 133.911 79.4995L133.911 78.1362C133.911 77.9449 133.953 77.7583 134.095 77.5666C134.226 77.3905 134.404 77.2348 134.632 77.1033C134.86 76.9718 135.13 76.8689 135.435 76.7935C135.767 76.7113 136.09 76.6872 136.421 76.6872C136.752 76.6872 137.076 76.7113 137.408 76.7935C137.713 76.8689 137.982 76.9718 138.21 77.1033C138.438 77.2348 138.616 77.3905 138.747 77.5666C138.887 77.7561 138.93 77.9406 138.931 78.1296L138.966 78.5986C138.978 78.7598 138.762 78.8961 138.482 78.9031C138.203 78.9102 137.967 78.7852 137.955 78.624L137.919 78.1489C137.919 78.1446 137.919 78.1404 137.919 78.1362C137.919 77.9969 137.889 77.8943 137.817 77.7968C137.733 77.6837 137.624 77.5915 137.494 77.5164C137.365 77.4414 137.205 77.379 137.009 77.3305C136.84 77.2887 136.662 77.2715 136.421 77.2715C136.18 77.2715 136.002 77.2887 135.833 77.3305C135.637 77.379 135.478 77.4414 135.348 77.5164Z" fill="#142251"/>
</g>
<circle r="17.7653" transform="matrix(0.866025 -0.5 0.866025 0.5 162.823 142.339)" fill="#F2F3F8"/>
<g clip-path="url(#clip3_0_4750)">
<path d="M158.172 142.545C158.181 142.551 158.236 142.578 158.427 142.572C158.616 142.565 158.879 142.525 159.202 142.44C159.846 142.271 160.633 141.951 161.392 141.513C162.151 141.074 162.706 140.62 162.999 140.248C163.146 140.061 163.215 139.91 163.227 139.8C163.238 139.691 163.19 139.659 163.181 139.653C163.172 139.648 163.117 139.621 162.927 139.627C162.737 139.634 162.475 139.674 162.151 139.759C161.507 139.928 160.72 140.248 159.961 140.686C159.202 141.124 158.647 141.579 158.354 141.951C158.207 142.138 158.138 142.289 158.127 142.398C158.115 142.508 158.163 142.54 158.172 142.545ZM157.457 142.959C157.169 142.793 157.095 142.569 157.116 142.363C157.138 142.157 157.257 141.933 157.433 141.709C157.788 141.258 158.424 140.748 159.246 140.273C160.068 139.799 160.952 139.432 161.732 139.227C162.121 139.125 162.509 139.056 162.866 139.044C163.222 139.032 163.61 139.074 163.897 139.24L165.328 140.067L166.759 140.893L168.19 141.719C168.478 141.885 168.552 142.109 168.531 142.314C168.509 142.521 168.39 142.745 168.214 142.969C167.859 143.419 167.223 143.93 166.401 144.405C165.579 144.879 164.695 145.246 163.915 145.451C163.526 145.553 163.138 145.621 162.781 145.634C162.425 145.646 162.037 145.603 161.75 145.437L160.319 144.611L158.888 143.785L157.457 142.959ZM159.603 143.372C159.612 143.377 159.668 143.405 159.858 143.398C160.047 143.392 160.31 143.352 160.634 143.267C161.278 143.098 162.065 142.777 162.823 142.339C163.582 141.901 164.137 141.446 164.43 141.075C164.577 140.888 164.647 140.736 164.658 140.627C164.669 140.517 164.622 140.485 164.612 140.48L164.117 140.194C164.065 140.292 163.998 140.391 163.92 140.49C163.566 140.941 162.93 141.451 162.108 141.926C161.286 142.4 160.402 142.767 159.621 142.972C159.449 143.017 159.277 143.056 159.108 143.086L159.603 143.372ZM160.539 143.912L161.035 144.198C161.044 144.203 161.099 144.231 161.289 144.224C161.479 144.218 161.741 144.178 162.065 144.093C162.709 143.924 163.496 143.603 164.255 143.165C165.014 142.727 165.569 142.273 165.861 141.901C166.009 141.714 166.078 141.562 166.089 141.453C166.101 141.343 166.053 141.311 166.044 141.306L165.549 141.02C165.496 141.118 165.43 141.217 165.352 141.316C164.997 141.767 164.361 142.277 163.539 142.752C162.717 143.227 161.833 143.594 161.052 143.798C160.88 143.844 160.709 143.882 160.539 143.912ZM161.971 144.738L162.466 145.024C162.475 145.03 162.53 145.057 162.72 145.051C162.91 145.044 163.172 145.004 163.496 144.919C164.14 144.75 164.927 144.43 165.686 143.991C166.445 143.553 167 143.099 167.293 142.727C167.44 142.54 167.509 142.389 167.52 142.279C167.532 142.169 167.484 142.138 167.475 142.132L166.98 141.846C166.928 141.944 166.861 142.043 166.783 142.143C166.428 142.593 165.792 143.104 164.97 143.578C164.148 144.053 163.264 144.42 162.483 144.625C162.312 144.67 162.14 144.708 161.971 144.738Z" fill="#142251"/>
</g>
<circle r="17.7653" transform="matrix(0.866025 -0.5 0.866025 0.5 99.2 120.442)" fill="#F2F3F8"/>
<g clip-path="url(#clip4_0_4750)">
<path d="M95.6224 119.203C94.4368 119.887 94.4368 120.997 95.6224 121.682C96.808 122.366 98.7303 122.366 99.9159 121.682C101.102 120.997 101.102 119.887 99.9159 119.203C98.7303 118.518 96.808 118.518 95.6224 119.203ZM94.9068 122.095C93.326 121.182 93.326 119.702 94.9068 118.79C96.4876 117.877 99.0507 117.877 100.632 118.79C101.293 119.172 101.678 119.653 101.786 120.15L105.641 120.15C105.92 120.15 106.147 120.281 106.147 120.442C106.147 120.604 105.92 120.735 105.641 120.735L101.786 120.735C101.678 121.232 101.293 121.713 100.632 122.095C99.0507 123.008 96.4876 123.008 94.9068 122.095Z" fill="#142251"/>
</g>
<circle r="17.7653" transform="matrix(0.866025 -0.5 0.866025 0.5 112.419 236.536)" fill="#F2F3F8"/>
<g clip-path="url(#clip5_0_4750)">
<path d="M106.635 236.571L108.241 235.643L110.053 236.091L109.776 236.892C109.743 236.988 109.795 237.087 109.915 237.156C109.949 237.175 109.915 237.156 109.915 237.156L109.915 237.156L109.916 237.157L109.918 237.158L109.922 237.16C109.926 237.162 109.93 237.164 109.935 237.167C109.944 237.172 109.957 237.179 109.973 237.187C110.004 237.203 110.047 237.223 110.103 237.247C110.214 237.295 110.374 237.357 110.583 237.417C111.002 237.538 111.616 237.654 112.419 237.654C113.222 237.654 113.836 237.538 114.255 237.417C114.465 237.357 114.624 237.295 114.735 237.247C114.791 237.223 114.834 237.203 114.866 237.187C114.881 237.179 114.894 237.172 114.904 237.167C114.908 237.164 114.913 237.162 114.916 237.16L114.92 237.158L114.922 237.157L114.923 237.156L114.923 237.156C114.923 237.156 114.961 237.132 114.924 237.156C115.059 237.078 115.107 236.962 115.046 236.857L114.806 236.442L116.658 235.678L118.204 236.571C117.557 237.07 115.625 238.31 112.419 238.31C109.213 238.31 107.281 237.07 106.635 236.571ZM110.83 236.828L111.046 236.206C111.14 235.935 110.892 235.663 110.452 235.554L108.64 235.106C108.259 235.012 107.818 235.061 107.526 235.23L105.9 236.168C105.575 236.356 105.495 236.663 105.795 236.897C106.475 237.431 108.679 238.894 112.419 238.894C116.159 238.894 118.363 237.431 119.044 236.897C119.343 236.663 119.263 236.356 118.938 236.168L117.374 235.265C117.024 235.063 116.472 235.037 116.07 235.203L114.218 235.966C113.857 236.115 113.706 236.383 113.846 236.627L113.97 236.841C113.922 236.858 113.866 236.876 113.803 236.894C113.507 236.98 113.047 237.07 112.419 237.07C111.791 237.07 111.331 236.98 111.035 236.894C110.955 236.871 110.887 236.849 110.83 236.828Z" fill="#142251"/>
</g>
<circle r="17.7653" transform="matrix(0.866025 -0.5 0.866025 0.5 50.8621 212.987)" fill="#F2F3F8"/>
<g clip-path="url(#clip6_0_4750)">
<path d="M45.1377 213.813C44.7425 213.585 44.7425 213.215 45.1377 212.987L50.8624 209.682C51.2576 209.454 51.8984 209.454 52.2936 209.682L56.2293 211.954C56.6245 212.182 56.6245 212.552 56.2293 212.78L54.5886 213.728L54.5886 214.846C54.5886 215.007 54.362 215.138 54.0826 215.138L52.1454 215.138L50.5046 216.086C50.1094 216.314 49.4687 216.314 49.0734 216.086L45.1377 213.813ZM51.578 210.095L45.8533 213.4L49.789 215.672L51.578 214.64C51.6729 214.585 51.8016 214.554 51.9358 214.554H53.5766L53.5766 213.607C53.5766 213.529 53.6299 213.455 53.7248 213.4L55.5137 212.367L51.578 210.095Z" fill="#142251"/>
<path d="M51.2202 212.574C51.5166 212.745 51.5166 213.022 51.2202 213.194C50.9238 213.365 50.4432 213.365 50.1468 213.194C49.8504 213.022 49.8504 212.745 50.1468 212.574C50.4432 212.403 50.9238 212.403 51.2202 212.574Z" fill="#142251"/>
<path d="M52.6514 211.748C52.9478 211.919 52.9478 212.196 52.6514 212.367C52.355 212.538 51.8744 212.538 51.578 212.367C51.2816 212.196 51.2816 211.919 51.578 211.748C51.8744 211.576 52.355 211.576 52.6514 211.748Z" fill="#142251"/>
<path d="M49.789 213.4C50.0854 213.571 50.0854 213.849 49.789 214.02C49.4926 214.191 49.0121 214.191 48.7157 214.02C48.4192 213.849 48.4192 213.571 48.7157 213.4C49.0121 213.229 49.4926 213.229 49.789 213.4Z" fill="#142251"/>
</g>
<circle r="17.7653" transform="matrix(0.866025 -0.5 0.866025 0.5 197.53 187.372)" fill="#F2F3F8"/>
<g clip-path="url(#clip7_0_4750)">
<path d="M198.604 186.752C199.197 187.095 199.197 187.649 198.604 187.992C198.011 188.334 197.05 188.334 196.457 187.992C195.864 187.649 195.864 187.095 196.457 186.752C197.05 186.41 198.011 186.41 198.604 186.752Z" fill="#142251"/>
<path d="M200.911 185.236C198.594 184.79 196.422 185.12 195.026 185.926C193.629 186.732 193.058 187.986 193.83 189.324C193.881 189.411 193.999 189.479 194.15 189.508C196.467 189.954 198.639 189.624 200.035 188.818C201.432 188.012 202.003 186.758 201.231 185.42C201.18 185.333 201.062 185.265 200.911 185.236ZM199.319 188.405C198.257 189.018 196.592 189.31 194.715 188.998C194.174 187.914 194.679 186.952 195.742 186.339C196.804 185.726 198.469 185.434 200.346 185.746C200.887 186.83 200.382 187.792 199.319 188.405Z" fill="#142251"/>
</g>
<defs>
<filter id="filter0_i_0_4750" x="159.32" y="3.78418" width="178.897" height="117.249" filterUnits="userSpaceOnUse" color-interpolation-filters="sRGB">
<feFlood flood-opacity="0" result="BackgroundImageFix"/>
<feBlend mode="normal" in="SourceGraphic" in2="BackgroundImageFix" result="shape"/>
<feColorMatrix in="SourceAlpha" type="matrix" values="0 0 0 0 0 0 0 0 0 0 0 0 0 0 0 0 0 0 127 0" result="hardAlpha"/>
<feOffset dy="1.96797"/>
<feGaussianBlur stdDeviation="0.983985"/>
<feComposite in2="hardAlpha" operator="arithmetic" k2="-1" k3="1"/>
<feColorMatrix type="matrix" values="0 0 0 0 1 0 0 0 0 1 0 0 0 0 1 0 0 0 0.25 0"/>
<feBlend mode="normal" in2="shape" result="effect1_innerShadow_0_4750"/>
</filter>
<clipPath id="clip0_0_4750">
<rect width="87.5868" height="167.737" fill="white" transform="matrix(0.866025 -0.5 0.866025 0.5 37.8574 193.156)"/>
</clipPath>
<clipPath id="clip1_0_4750">
<rect width="206.573" height="137.715" fill="white" transform="matrix(0.866025 0.5 -2.20305e-08 1 159.32 0.630127)"/>
</clipPath>
<clipPath id="clip2_0_4750">
<rect width="9.91549" height="9.91549" fill="white" transform="matrix(0.866025 -0.5 0.866025 0.5 128.621 78.3015)"/>
</clipPath>
<clipPath id="clip3_0_4750">
<rect width="9.91549" height="9.91549" fill="white" transform="matrix(0.866025 -0.5 0.866025 0.5 154.236 142.339)"/>
</clipPath>
<clipPath id="clip4_0_4750">
<rect width="9.91549" height="9.91549" fill="white" transform="matrix(0.866025 -0.5 0.866025 0.5 90.6133 120.442)"/>
</clipPath>
<clipPath id="clip5_0_4750">
<rect width="9.91549" height="9.91549" fill="white" transform="matrix(0.866025 -0.5 0.866025 0.5 103.832 236.536)"/>
</clipPath>
<clipPath id="clip6_0_4750">
<rect width="9.91549" height="9.91549" fill="white" transform="matrix(0.866025 -0.5 0.866025 0.5 42.2754 212.987)"/>
</clipPath>
<clipPath id="clip7_0_4750">
<rect width="9.91549" height="9.91549" fill="white" transform="matrix(0.866025 -0.5 0.866025 0.5 188.943 187.372)"/>
</clipPath>
</defs>
</svg>
