<svg width="73" height="71" viewBox="0 0 73 71" fill="none" xmlns="http://www.w3.org/2000/svg">
<rect x="0.447266" y="0.616455" width="72.335" height="69.4495" rx="20" fill="#F2F3F8"/>
<path fill-rule="evenodd" clip-rule="evenodd" d="M32.2865 22.3566C29.8961 22.3566 27.9583 24.2944 27.9583 26.6848V28.1275L25.0729 28.1276C23.4793 28.1276 22.1874 29.4194 22.1874 31.013V45.4403C22.1874 47.0339 23.4793 48.3258 25.0729 48.3258H48.1566C49.7502 48.3258 51.0421 47.0339 51.0421 45.4403V31.013C51.0421 29.4194 49.7502 28.1275 48.1566 28.1275H45.2711V26.6848C45.2711 24.2944 43.3333 22.3566 40.9429 22.3566H32.2865ZM42.3857 28.1275V26.6848C42.3857 25.888 41.7397 25.242 40.9429 25.242H32.2865C31.4897 25.242 30.8438 25.888 30.8438 26.6848V28.1275L42.3857 28.1275ZM25.0729 31.013V33.8984H48.1566V31.013H25.0729ZM48.1566 36.7839H40.6967C40.1025 38.465 38.4993 39.6694 36.6147 39.6694C34.7302 39.6694 33.127 38.465 32.5328 36.7839H25.0729V45.4403H48.1566V36.7839Z" fill="#142251"/>
</svg>
