<svg width="94" height="89" viewBox="0 0 94 89" fill="none" xmlns="http://www.w3.org/2000/svg">
<path d="M17.8869 0.675775C12.2811 5.37301 7.77409 11.2428 4.68357 17.8713C1.59305 24.4998 -0.00571466 31.7256 1.53458e-05 39.0392C0.00574535 46.3527 1.61583 53.576 4.71673 60.1997C7.81764 66.8233 12.3339 72.6861 17.947 77.3745C23.56 82.0629 30.1333 85.4629 37.2033 87.3347C44.2733 89.2065 51.6678 89.5045 58.8655 88.2077C66.0632 86.911 72.8888 84.051 78.861 79.8294C84.8332 75.6079 89.8065 70.1276 93.4304 63.775L85.2483 59.1075C82.3072 64.2633 78.2708 68.7112 73.4237 72.1374C68.5767 75.5636 63.037 77.8848 57.1953 78.9373C51.3536 79.9897 45.3522 79.7479 39.6141 78.2287C33.8761 76.7096 28.5412 73.9501 23.9856 70.1449C19.43 66.3398 15.7646 61.5815 13.2479 56.2058C10.7311 50.83 9.42439 44.9675 9.41974 39.0318C9.41509 33.0961 10.7127 27.2316 13.2209 21.8519C15.7292 16.4721 19.3872 11.7082 23.9368 7.89585L17.8869 0.675775Z" fill="#6A6A6A"/>
</svg>
