<svg width="132" height="19" viewBox="0 0 132 19" fill="none" xmlns="http://www.w3.org/2000/svg">
<path d="M26.0809 15.9117L30.4627 3.23453H33.1005L37.4857 15.9117H35.4011L34.3317 12.7799H29.164L28.1115 15.9117H26.0809ZM29.7341 11.0117H33.7448L31.785 5.24335H31.6973L29.7341 11.0117Z" fill="#142251"/>
<path d="M40.5891 15.9117V3.23802H44.5998C45.632 3.23802 46.4787 3.29033 47.1399 3.39496C47.7976 3.49958 48.3171 3.68791 48.6983 3.95645C49.0795 4.22848 49.3561 4.60164 49.5281 5.07943C49.7002 5.55722 49.8115 6.16754 49.8587 6.90341C49.9059 7.63928 49.9295 8.53209 49.9295 9.57486C49.9295 10.6176 49.9059 11.5104 49.8587 12.2463C49.8115 12.9822 49.7002 13.5925 49.5281 14.0703C49.3561 14.5481 49.0795 14.9247 48.6983 15.1933C48.3171 15.4618 47.7976 15.6501 47.1399 15.7548C46.4821 15.8594 45.6354 15.9117 44.5998 15.9117H40.5891ZM42.6029 14.1435H44.4211C45.0856 14.1435 45.6354 14.1296 46.0706 14.0982C46.5023 14.0668 46.8464 13.9831 47.096 13.8401C47.3456 13.6971 47.5312 13.4669 47.6492 13.1496C47.7673 12.8287 47.8415 12.3788 47.8719 11.7964C47.9022 11.214 47.9157 10.4746 47.9157 9.57486C47.9157 8.67856 47.9022 7.94269 47.8719 7.36377C47.8415 6.78832 47.7639 6.33494 47.6391 6.0106C47.5143 5.68626 47.3254 5.4526 47.069 5.30961C46.8127 5.16662 46.472 5.08292 46.0436 5.05153C45.6152 5.02014 45.0755 5.0062 44.4211 5.0062H42.6029V14.1435Z" fill="#142251"/>
<path d="M53.8796 15.9117V3.23802H59.6006C60.373 3.23802 60.9971 3.32869 61.4727 3.51353C61.9483 3.69837 62.3025 3.96342 62.542 4.31566C62.7781 4.66442 62.94 5.08292 63.0244 5.56769C63.1087 6.05245 63.1492 6.58256 63.1492 7.16149C63.1492 7.57999 63.1121 8.03686 63.0345 8.53557C62.9569 9.03429 62.7916 9.48767 62.5353 9.8992C62.2789 10.3107 61.8775 10.6072 61.331 10.792L63.3448 15.9152H61.2062L59.2464 10.7362L59.7625 11.0117C59.6781 11.0501 59.5803 11.071 59.469 11.0745C59.3543 11.0815 59.2228 11.085 59.0676 11.085H55.8968V15.9117H53.8796ZM55.8934 9.31678H58.7438C59.3003 9.31678 59.7422 9.27842 60.0627 9.1982C60.3831 9.11799 60.6193 8.99244 60.7744 8.82155C60.9296 8.65066 61.0274 8.42746 61.0679 8.15892C61.1084 7.89038 61.132 7.55558 61.132 7.16497C61.132 6.76042 61.1118 6.41865 61.0679 6.14313C61.0274 5.86762 60.933 5.64441 60.7913 5.4805C60.6496 5.31658 60.4202 5.19452 60.1065 5.12128C59.7928 5.04804 59.3611 5.00968 58.8146 5.00968H55.8934V9.31678Z" fill="#142251"/>
<path d="M65.8039 15.9117L70.1857 3.23453H72.8236L77.2088 15.9117H75.1241L74.0548 12.7799H68.887L67.8346 15.9117H65.8039ZM69.4571 11.0117H73.4679L71.508 5.24335H71.4203L69.4571 11.0117Z" fill="#142251"/>
<path d="M84.2116 16.0582C83.7731 16.0582 83.2873 16.0477 82.7611 16.0198C82.2315 15.9954 81.7154 15.9605 81.2094 15.9187C80.7034 15.8768 80.2447 15.828 79.8298 15.7792V14.0668C80.2582 14.1052 80.7068 14.14 81.1757 14.1784C81.6445 14.2168 82.0932 14.2447 82.5216 14.2621C82.95 14.2795 83.3177 14.29 83.628 14.29C84.2588 14.29 84.7513 14.2586 85.1055 14.1993C85.4631 14.1365 85.7464 14.0389 85.9623 13.9029C86.104 13.8052 86.2085 13.6832 86.2726 13.5332C86.3367 13.3867 86.3806 13.2123 86.3974 13.0066C86.4143 12.8043 86.4244 12.5811 86.4244 12.3335C86.4244 12.0022 86.4109 11.7267 86.3873 11.5035C86.3637 11.2837 86.3097 11.1094 86.2254 10.9873C86.1411 10.8652 86.0129 10.7746 85.8341 10.7188C85.6553 10.663 85.4259 10.6176 85.1392 10.5793L82.218 10.227C81.6479 10.1538 81.1824 10.0282 80.8181 9.85037C80.4572 9.67251 80.1772 9.43535 79.9816 9.1424C79.7859 8.84945 79.651 8.49721 79.5801 8.09266C79.5093 7.6881 79.4722 7.23821 79.4722 6.74647C79.4722 5.92341 79.5801 5.27125 79.7927 4.79346C80.0052 4.31567 80.3121 3.94948 80.7102 3.69837C81.1082 3.44727 81.5805 3.27987 82.1269 3.19966C82.6734 3.11944 83.2806 3.08108 83.9451 3.08108C84.4072 3.08108 84.8829 3.09503 85.372 3.12641C85.8577 3.1578 86.3198 3.19268 86.7516 3.23802C87.1868 3.27987 87.5443 3.33916 87.831 3.41239V5.0899C87.5342 5.04107 87.1868 4.99573 86.7887 4.96086C86.3907 4.9225 85.9791 4.89459 85.5507 4.87716C85.1223 4.85972 84.7243 4.84925 84.3566 4.84925C83.7393 4.84925 83.2435 4.87716 82.869 4.93296C82.4946 4.98876 82.2079 5.07595 82.0055 5.2015C81.766 5.33751 81.6243 5.52235 81.5771 5.76299C81.5299 6.00363 81.5062 6.30007 81.5062 6.6558C81.5062 7.0743 81.5332 7.39515 81.5872 7.62184C81.6412 7.84853 81.766 8.00547 81.9616 8.09266C82.1573 8.17985 82.4575 8.24611 82.8623 8.29493L85.7869 8.64717C86.1546 8.68554 86.4885 8.74134 86.7853 8.82155C87.0822 8.90176 87.3453 9.03429 87.578 9.21913C87.8108 9.40397 87.9896 9.66902 88.1211 10.0108C88.2055 10.1817 88.2662 10.3805 88.31 10.6002C88.3505 10.8199 88.3876 11.064 88.418 11.3291C88.4483 11.5941 88.4618 11.8906 88.4618 12.2219C88.4618 12.9229 88.3944 13.5053 88.2561 13.9726C88.1178 14.44 87.9289 14.8096 87.686 15.0886C87.4431 15.3642 87.1429 15.5734 86.7853 15.7164C86.4278 15.8594 86.0365 15.9501 85.6081 15.9919C85.1729 16.0373 84.7108 16.0582 84.2116 16.0582Z" fill="#142251"/>
<path d="M94.7596 15.9117V5.05851H91.0356V3.23453H100.481V5.05851H96.7735V15.9117H94.7596Z" fill="#142251"/>
<path d="M103.635 3.23802H111.798V5.0062H105.652V8.63671H110.961V10.4049H105.652V14.147H111.798V15.9152H103.635V3.23802Z" fill="#142251"/>
<path d="M115.502 3.23802H117.515V15.9152H115.502V3.23802Z" fill="#142251"/>
<path d="M120.599 15.9117L124.98 3.23453H127.618L132 15.9117H129.915L128.846 12.7799H123.682L122.629 15.9117H120.599ZM124.252 11.0117H128.262L126.303 5.24335H126.215L124.252 11.0117Z" fill="#142251"/>
<path d="M20.499 18.8771H17.3224C17.0892 18.8771 16.9002 18.6846 16.9002 18.447C16.9002 18.2094 17.0892 18.0169 17.3224 18.0169H19.7793L17.7788 14.3669L15.517 18.6498C15.4426 18.789 15.2999 18.8771 15.1451 18.8771H13.022C12.8732 18.8771 12.7345 18.7972 12.6581 18.6661C12.5817 18.5351 12.5797 18.3732 12.65 18.2401L16.2508 11.5342L15.8025 10.6657L13.4301 14.9302C13.3155 15.137 13.0562 15.2108 12.8551 15.092C12.6521 14.9752 12.5817 14.7131 12.6963 14.5062L15.4507 9.55561C15.525 9.42043 15.6658 9.33645 15.8186 9.33645C15.8206 9.33645 15.8226 9.33645 15.8246 9.33645C15.9794 9.33849 16.1202 9.42657 16.1925 9.56585L17.1053 11.3376C17.1716 11.4646 17.1696 11.6182 17.1013 11.7431L13.7337 18.0148H14.8917L17.3988 13.267C17.4712 13.1277 17.614 13.0417 17.7668 13.0396C17.7688 13.0396 17.7688 13.0396 17.7708 13.0396C17.9236 13.0396 18.0643 13.1236 18.1387 13.2609L20.8669 18.236C20.9393 18.3691 20.9393 18.531 20.8629 18.6641C20.7865 18.7972 20.6478 18.8771 20.499 18.8771Z" fill="#142251"/>
<path d="M10.921 19H9.20405C9.05528 19 8.91655 18.9201 8.84015 18.789C8.76375 18.6579 8.76174 18.4961 8.83412 18.363L14.3951 8.10751L13.9287 7.16123L12.4932 9.7338C12.3786 9.94068 12.1213 10.0124 11.9182 9.89562C11.7152 9.77887 11.6448 9.51669 11.7594 9.30982L13.5849 6.03675C13.6613 5.89952 13.8021 5.82168 13.9629 5.81963C14.1177 5.82373 14.2584 5.91385 14.3288 6.05723L15.2496 7.92522C15.3119 8.05221 15.3099 8.20173 15.2416 8.32667L9.91778 18.1418H10.6737L11.6689 16.3516C11.7835 16.1448 12.0429 16.071 12.2439 16.1898C12.447 16.3066 12.5174 16.5688 12.4028 16.7756L11.2849 18.7849C11.2145 18.9181 11.0738 19 10.921 19Z" fill="#142251"/>
<path d="M7.14732 18.8771H5.03027C4.87948 18.8771 4.74076 18.7952 4.66637 18.6641C4.58997 18.533 4.58997 18.3691 4.66235 18.236L6.9322 14.1334C7.04679 13.9265 7.30414 13.8528 7.5072 13.9695C7.71026 14.0863 7.78263 14.3485 7.66804 14.5553L5.75405 18.0148H6.90405L10.9431 10.7764C11.0577 10.5695 11.3151 10.4978 11.5181 10.6145C11.7212 10.7313 11.7916 10.9935 11.677 11.2003L7.51725 18.6579C7.43884 18.7952 7.29811 18.8771 7.14732 18.8771Z" fill="#142251"/>
<path d="M8.13648 13.2588C8.06611 13.2588 7.99575 13.2404 7.9294 13.2035C7.72634 13.0868 7.65396 12.8246 7.76856 12.6177L12.3324 4.36744L11.9062 3.54815L9.52975 7.66714C9.41113 7.87196 9.15178 7.93956 8.95073 7.82076C8.74968 7.69991 8.68334 7.43569 8.79994 7.23292L11.5604 2.4503C11.6388 2.31511 11.7835 2.23523 11.9343 2.23728C12.0871 2.24138 12.2258 2.3274 12.2982 2.46464L13.1868 4.17081C13.2552 4.29985 13.2532 4.45551 13.1808 4.58455L8.5044 13.0396C8.428 13.1789 8.28526 13.2588 8.13648 13.2588Z" fill="#142251"/>
<path d="M2.82073 18.8771H0.422214C0.271427 18.8771 0.130693 18.7952 0.0563043 18.662C-0.0200945 18.5289 -0.0180851 18.3651 0.0583137 18.2319L3.00771 13.0663C3.12432 12.8615 3.38367 12.7918 3.58472 12.9106C3.78577 13.0294 3.85413 13.2936 3.73752 13.4985L1.15604 18.0169H2.57947L7.77258 9.03741C7.8912 8.83258 8.15055 8.76499 8.3516 8.88584C8.55265 9.00668 8.619 9.27091 8.50038 9.47573L3.18463 18.6682C3.10823 18.7972 2.97152 18.8771 2.82073 18.8771Z" fill="#142251"/>
<path d="M5.34591 10.2561C5.27354 10.2561 5.20116 10.2377 5.13481 10.1967C4.93376 10.0779 4.86541 9.81368 4.98202 9.60886L7.97162 4.37358C8.08823 4.16876 8.34758 4.09912 8.54863 4.21792C8.74968 4.33672 8.81804 4.60094 8.70143 4.80576L5.71182 10.041C5.6314 10.1803 5.49067 10.2561 5.34591 10.2561Z" fill="#142251"/>
<path d="M9.24426 3.42935C9.17189 3.42935 9.09951 3.41092 9.03316 3.36995C8.83211 3.25115 8.76376 2.98693 8.88036 2.78211L10.348 0.213626C10.4646 0.0088026 10.724 -0.0608361 10.925 0.0579613C11.1261 0.176759 11.1944 0.440979 11.0778 0.645803L9.61017 3.21428C9.53176 3.35356 9.38902 3.42935 9.24426 3.42935Z" fill="#142251"/>
</svg>
