<svg width="405" height="224" viewBox="0 0 405 224" fill="none" xmlns="http://www.w3.org/2000/svg">
<rect width="405" height="224" rx="30" fill="#F3F6F9"/>
<path d="M311.604 48.9457L311.604 175.73C311.604 178.462 309.389 180.676 306.656 180.676L98.946 180.676C96.2144 180.676 93.9999 178.462 93.9999 175.73L93.9999 48.9457C93.9999 46.2142 96.2144 43.9999 98.946 43.9999L306.656 43.9999C309.389 43.9999 311.604 46.2142 311.604 48.9457Z" fill="#989EB1"/>
<path d="M291.379 173.619L291.379 51.3371L105.544 51.3371L105.544 173.619L291.379 173.619Z" fill="#D5ECF1"/>
<path d="M302 51C303.105 51 304 51.8954 304 53L304 64C304 65.1046 303.105 66 302 66C300.895 66 300 65.1046 300 64L300 53C300 51.8954 300.895 51 302 51Z" fill="white"/>
<path d="M302 69C303.105 69 304 69.8954 304 71L304 72C304 73.1046 303.105 74 302 74C300.895 74 300 73.1046 300 72L300 71C300 69.8954 300.895 69 302 69Z" fill="white"/>
<path d="M277.405 173.619L291.379 173.619L291.379 172.621L278.629 170.177L277.405 173.619Z" fill="#EFF0F3"/>
<path d="M272.47 62.7012L277.002 51.3375L224.889 51.3375L223.94 53.4013L272.47 62.7012Z" fill="#EFF0F3"/>
<path d="M105.544 137.008L105.544 163.455L117.443 139.288L105.544 137.008Z" fill="#EFF0F3"/>
<path d="M291.379 66.325L291.379 51.3376L284.608 51.3376L279.651 64.0778L291.379 66.325Z" fill="#EFF0F3"/>
<path d="M179.036 151.092L168.681 173.619L216.949 173.619L220.197 158.98L179.036 151.092Z" fill="#EFF0F3"/>
<path d="M228.591 160.589L225.615 173.619L268.655 173.619L270.387 168.598L228.591 160.589Z" fill="#EFF0F3"/>
<path d="M126.817 141.084L112.764 173.619L157.417 173.619L168.736 149.118L126.817 141.084Z" fill="#EFF0F3"/>
<path d="M191.137 100.63L105.546 79.9656L105.546 121.541L175.302 134.909L191.137 100.63Z" fill="#EFF0F3"/>
<path d="M210.566 58.5719L172.816 51.3375L105.545 51.3375L105.545 65.4412L196.623 88.7544L210.566 58.5719Z" fill="#EFF0F3"/>
<path d="M185.57 136.877L291.379 157.154L291.379 132.12L261.56 122.811L280.692 90.0554L291.379 91.1384L291.379 74.0588L220.673 60.509L185.57 136.877Z" fill="#EFF0F3"/>
<path d="M119.73 139.726L126.816 141.084L168.736 149.118L175.301 134.909L105.545 121.541L105.545 137.008L117.444 139.288L119.73 139.726Z" fill="white"/>
<path d="M117.443 139.288L105.544 137.008L117.443 139.288L117.443 139.288Z" fill="white"/>
<path d="M179.036 151.092L220.197 158.98L221.389 153.61L228.864 159.398L228.591 160.589L270.387 168.598L271.099 166.535L278.629 170.177L291.379 172.622L291.379 162.227L183.344 141.719L179.036 151.092Z" fill="white"/>
<path d="M183.344 141.719L291.379 162.227L291.379 157.154L185.57 136.877L183.344 141.719Z" fill="white"/>
<path d="M272.037 63.783L272.469 62.7013L223.939 53.4015L223.447 54.4717L272.037 63.783Z" fill="white"/>
<path d="M279.229 65.1615L291.379 67.4895L291.379 66.325L279.651 64.0778L279.229 65.1615Z" fill="white"/>
<path d="M213.848 51.4672L213.171 51.3374L172.816 51.3374L210.565 58.5718L213.848 51.4672Z" fill="white"/>
<path d="M279.014 65.7152L271.346 65.5182L272.038 63.7828L223.448 54.4715L220.673 60.5088L291.379 74.0586L291.379 67.4893L279.229 65.1613L279.014 65.7152Z" fill="white"/>
<path d="M168.737 149.118L157.419 173.619L168.682 173.619L179.037 151.092L168.737 149.118Z" fill="white"/>
<path d="M217.26 59.8539L210.566 58.5716L196.622 88.7542L198.424 89.2157L198.087 102.309L191.135 100.63L175.301 134.909L182.723 136.331L217.26 59.8539Z" fill="white"/>
<path d="M213.849 51.4671L223.94 53.4011L224.889 51.3373L213.908 51.3373L213.849 51.4671Z" fill="white"/>
<path d="M182.724 136.331L185.571 136.877L220.674 60.5088L217.261 59.8542L182.724 136.331Z" fill="white"/>
<path d="M182.723 136.331L175.301 134.909L168.736 149.118L179.036 151.092L183.344 141.719L180.531 141.185L182.723 136.331Z" fill="white"/>
<path d="M180.532 141.185L183.344 141.719L185.57 136.877L182.724 136.331L180.532 141.185Z" fill="white"/>
<path d="M217.262 59.8542L219.992 53.8085L223.45 54.4717L223.941 53.4014L213.85 51.4674L210.568 58.572L217.262 59.8542Z" fill="white"/>
<path d="M217.259 59.8544L220.672 60.509L223.447 54.4718L219.99 53.8087L217.259 59.8544Z" fill="white"/>
<path d="M279.651 64.0776L284.607 51.3374L277.001 51.3374L272.469 62.7011L279.651 64.0776Z" fill="white"/>
<path d="M279.229 65.1614L279.65 64.0777L272.469 62.7012L272.037 63.7829L279.229 65.1614Z" fill="white"/>
<path d="M271.347 65.5181L279.015 65.7151L279.23 65.1612L272.039 63.7827L271.347 65.5181Z" fill="white"/>
<path d="M119.73 139.726L117.443 139.288L105.545 163.455L105.545 173.619L112.764 173.619L126.816 141.084L119.73 139.726Z" fill="white"/>
<path d="M117.445 139.288L119.732 139.727L117.445 139.288L117.445 139.288Z" fill="white"/>
<path d="M270.387 168.598L268.655 173.619L277.405 173.619L278.629 170.177L270.387 168.598Z" fill="white"/>
<path d="M271.099 166.535L270.387 168.598L278.629 170.177L271.099 166.535Z" fill="white"/>
<path d="M220.198 158.98L216.949 173.619L225.616 173.619L228.592 160.589L220.198 158.98Z" fill="white"/>
<path d="M228.865 159.398L221.39 153.61L220.199 158.98L228.593 160.589L228.865 159.398Z" fill="white"/>
<path d="M196.623 88.7542L105.545 65.4411L105.545 79.9656L191.136 100.63L196.623 88.7542Z" fill="white"/>
<path d="M198.426 89.2161L196.624 88.7545L191.137 100.631L198.089 102.31L198.426 89.2161Z" fill="white"/>
<path d="M261.562 122.811L291.381 132.12L291.381 91.1381L280.694 90.0551L261.562 122.811Z" fill="#EFF0F3"/>
<path d="M189 114.5L177 142L103.5 127.5" stroke="#989EB1" stroke-width="2"/>
<path d="M199 101.382C198.957 106.52 189.345 120 189.345 120C189.345 120 179.958 106.364 180 101.226C180.043 96.0879 184.33 91.9573 189.577 92.0003C194.824 92.0435 199.042 96.2436 199 101.382Z" fill="#142251"/>
</svg>
