<svg width="73" height="73" viewBox="0 0 73 73" fill="none" xmlns="http://www.w3.org/2000/svg">
<rect y="0.616455" width="72.335" height="72.335" rx="20" fill="#F2F3F8"/>
<path d="M44.1053 22.5515C44.5501 22.8096 44.8239 23.285 44.8239 23.7993V29.5702C46.5332 29.5702 48.0704 30.3152 49.125 31.4935C50.038 32.5136 50.5948 33.8641 50.5948 35.3412C50.5948 36.8183 50.038 38.1688 49.125 39.1888C48.0704 40.3671 46.5332 41.1121 44.8239 41.1121V46.883C44.8239 47.3973 44.5501 47.8727 44.1053 48.1309C43.6605 48.389 43.1119 48.3908 42.6654 48.1357L33.282 42.7738V49.7685C33.282 50.5653 32.6361 51.2112 31.8393 51.2112H26.0683C25.2715 51.2112 24.6256 50.5653 24.6256 49.7685V42.5548C23.032 42.5548 21.7401 41.263 21.7401 39.6694V31.013C21.7401 29.4194 23.032 28.1275 24.6256 28.1275H32.8989L42.6654 22.5467C43.1119 22.2915 43.6605 22.2933 44.1053 22.5515ZM33.282 39.6694C33.5331 39.6694 33.7798 39.7349 33.9978 39.8595L41.9384 44.397V26.2854L33.9978 30.8229C33.7798 30.9474 33.5331 31.013 33.282 31.013H24.6256V39.6694H33.282ZM27.5111 42.5548V48.3258H30.3965V42.5548H27.5111ZM44.8239 38.2266C45.6783 38.2266 46.4445 37.8571 46.975 37.2645C47.4327 36.753 47.7094 36.0811 47.7094 35.3412C47.7094 34.6012 47.4327 33.9293 46.975 33.4179C46.4445 32.8253 45.6783 32.4557 44.8239 32.4557V38.2266Z" fill="#142251"/>
</svg>
