<svg width="71" height="73" viewBox="0 0 71 73" fill="none" xmlns="http://www.w3.org/2000/svg">
<rect x="0.597656" y="0.616455" width="69.4495" height="72.335" rx="20" fill="#F2F3F8"/>
<path d="M35.3224 25.242C32.1352 25.242 29.5515 27.8258 29.5515 31.013C29.5515 34.2002 32.1352 36.7839 35.3224 36.7839C38.5096 36.7839 41.0933 34.2002 41.0933 31.013C41.0933 27.8258 38.5096 25.242 35.3224 25.242ZM26.666 31.013C26.666 26.2322 30.5416 22.3566 35.3224 22.3566C40.1032 22.3566 43.9788 26.2322 43.9788 31.013C43.9788 35.7938 40.1032 39.6694 35.3224 39.6694C30.5416 39.6694 26.666 35.7938 26.666 31.013ZM29.5515 45.4403C27.1611 45.4403 25.2233 47.3781 25.2233 49.7685C25.2233 50.5653 24.5773 51.2112 23.7805 51.2112C22.9837 51.2112 22.3378 50.5653 22.3378 49.7685C22.3378 45.7845 25.5675 42.5548 29.5515 42.5548H41.0933C45.0773 42.5548 48.307 45.7845 48.307 49.7685C48.307 50.5653 47.6611 51.2112 46.8643 51.2112C46.0675 51.2112 45.4215 50.5653 45.4215 49.7685C45.4215 47.3781 43.4837 45.4403 41.0933 45.4403H29.5515Z" fill="#142251"/>
</svg>
