<svg width="73" height="72" viewBox="0 0 73 72" fill="none" xmlns="http://www.w3.org/2000/svg">
<rect y="0.562256" width="72.335" height="71.0365" rx="20" fill="#F2F3F8"/>
<path d="M36.1675 22.3024C36.714 22.3024 37.2136 22.6111 37.4579 23.0999L41.1786 30.5412L49.3598 31.7312C49.9032 31.8103 50.3546 32.1909 50.5242 32.7131C50.6939 33.2353 50.5524 33.8086 50.1593 34.1919L44.205 39.9974L45.5444 48.1829C45.6329 48.7238 45.4072 49.2682 44.9619 49.5879C44.5166 49.9075 43.9286 49.9472 43.4444 49.6903L36.1675 45.8291L28.8907 49.6903C28.4065 49.9472 27.8185 49.9075 27.3731 49.5879C26.9278 49.2682 26.7021 48.7238 26.7907 48.1829L28.1301 39.9974L22.1757 34.1919C21.7826 33.8086 21.6411 33.2353 21.8108 32.7131C21.9805 32.1909 22.4319 31.8103 22.9753 31.7312L31.1564 30.5412L34.8771 23.0999C35.1215 22.6111 35.6211 22.3024 36.1675 22.3024ZM36.1675 26.9712L33.4003 32.5057C33.1891 32.928 32.7847 33.2202 32.3175 33.2882L26.2825 34.166L30.6824 38.4559C31.0195 38.7847 31.1751 39.2572 31.099 39.7219L30.108 45.7778L35.4913 42.9214C35.9142 42.697 36.4209 42.697 36.8438 42.9214L42.227 45.7778L41.236 39.7219C41.16 39.2572 41.3155 38.7847 41.6526 38.4559L46.0526 34.166L40.0175 33.2882C39.5503 33.2202 39.1459 32.928 38.9348 32.5057L36.1675 26.9712Z" fill="#142251"/>
</svg>
