<svg width="26" height="26" viewBox="0 0 26 26" fill="none" xmlns="http://www.w3.org/2000/svg">
<g clip-path="url(#clip0_0_3148)">
<path d="M13 26C20.1797 26 26 20.1797 26 13C26 5.8203 20.1797 0 13 0C5.8203 0 0 5.8203 0 13C0 20.1797 5.8203 26 13 26Z" fill="#213887"/>
<path fill-rule="evenodd" clip-rule="evenodd" d="M5.88454 12.8629C9.6743 11.2118 12.2014 10.1233 13.4659 9.59735C17.0761 8.09572 17.8263 7.83488 18.3152 7.82626C18.4228 7.82437 18.6632 7.85102 18.819 7.97741C18.9505 8.08412 18.9867 8.22828 19.004 8.32946C19.0213 8.43064 19.0429 8.66113 19.0257 8.84123C18.8301 10.8968 17.9836 15.8852 17.5529 18.1876C17.3707 19.1617 17.0118 19.4884 16.6645 19.5204C15.9095 19.5898 15.3363 19.0214 14.6051 18.5421C13.4609 17.7921 12.8145 17.3252 11.7039 16.5934C10.4204 15.7475 11.2524 15.2827 11.9839 14.5229C12.1753 14.3241 15.5016 11.2986 15.566 11.0242C15.574 10.9899 15.5815 10.8619 15.5055 10.7943C15.4295 10.7268 15.3173 10.7499 15.2363 10.7683C15.1216 10.7943 13.2937 12.0024 9.75285 14.3926C9.23403 14.7489 8.7641 14.9225 8.34305 14.9134C7.87889 14.9033 6.98601 14.6509 6.32226 14.4352C5.50813 14.1705 4.86108 14.0306 4.91742 13.5812C4.94677 13.3471 5.26914 13.1077 5.88454 12.8629Z" fill="white"/>
</g>
<defs>
<clipPath id="clip0_0_3148">
<rect width="26" height="26" fill="white"/>
</clipPath>
</defs>
</svg>
