<svg width="84" height="109" viewBox="0 0 84 109" fill="none" xmlns="http://www.w3.org/2000/svg">
<path d="M0 36.6613L41.5714 60.4164L83.1428 36.6613L41.5714 12.9062L0 36.6613Z" fill="#E4E7F1"/>
<path d="M0 84.1715V36.6613L41.5714 60.4164V107.927L0 84.1715Z" fill="#E4E7F1"/>
<path d="M41.5714 60.4164V107.927L83.1428 84.1715V36.6613L41.5714 60.4164Z" fill="#E4E7F1"/>
<path d="M41.5714 60.4164V107.927L83.1428 84.1715V36.6613L41.5714 60.4164Z" fill="#E4E7F1"/>
<path d="M41.5714 60.4164V107.927L83.1428 84.1715V36.6613L41.5714 60.4164Z" fill="#E4E7F1"/>
<path d="M41.5714 60.4164V107.927L83.1428 84.1715V36.6613L41.5714 60.4164Z" fill="#E4E7F1"/>
<g filter="url(#filter0_i_0_4904)">
<path d="M0 36.694L41.6286 60.4818L83.2571 36.694L41.6286 12.9062L0 36.694Z" fill="#E4E7F1"/>
<path d="M0 84.2695V36.694L41.6286 60.4818V108.057L0 84.2695Z" fill="#E4E7F1"/>
<path d="M41.6286 60.4818V108.057L83.2571 84.2695V36.694L41.6286 60.4818Z" fill="#E4E7F1"/>
<path d="M41.6286 60.4818V108.057L83.2571 84.2695V36.694L41.6286 60.4818Z" fill="#E4E7F1"/>
<path d="M41.6286 60.4818V108.057L83.2571 84.2695V36.694L41.6286 60.4818Z" fill="#E4E7F1"/>
<path d="M41.6286 60.4818V108.057L83.2571 84.2695V36.694L41.6286 60.4818Z" fill="#E4E7F1"/>
</g>
<g filter="url(#filter1_i_0_4904)">
<path d="M0 36.694L41.6286 60.4818L83.2571 36.694L41.6286 12.9062L0 36.694Z" fill="#AFB4C4"/>
<path d="M0 36.694L41.6286 60.4818L83.2571 36.694L41.6286 12.9062L0 36.694Z" fill="white" fill-opacity="0.4"/>
<path d="M0 84.2695V36.694L41.6286 60.4818V108.057L0 84.2695Z" fill="#AFB4C4"/>
<path d="M0 84.2695V36.694L41.6286 60.4818V108.057L0 84.2695Z" fill="white" fill-opacity="0.4"/>
</g>
<g filter="url(#filter2_i_0_4904)">
<path d="M0 36.694L41.6286 60.4818L83.2571 36.694L41.6286 12.9062L0 36.694Z" fill="#F2F3F8"/>
</g>
<rect width="36.9469" height="36.9469" rx="11.1347" transform="matrix(0.866025 0.5 -0.866025 0.5 41.7266 18.3511)" fill="#E4E7F1"/>
<g clip-path="url(#clip0_0_4904)">
<path d="M43.9181 33.5346C44.1602 33.3948 44.5527 33.3948 44.7948 33.5346L47.4246 35.053C47.6667 35.1927 47.6667 35.4193 47.4246 35.5591L48.3013 36.0652C48.7854 36.3447 48.7854 36.7979 48.3013 37.0775L41.7265 40.8734C41.2424 41.1529 40.4574 41.1529 39.9733 40.8734L34.7135 37.8366C34.2294 37.5571 34.2294 37.1039 34.7135 36.8244L41.2882 33.0285C41.7724 32.7489 42.5573 32.7489 43.0415 33.0285L43.9181 33.5346ZM43.0415 34.0407L42.1649 33.5346L35.5901 37.3305L40.8499 40.3672L47.4246 36.5713L46.548 36.0652L46.1097 36.3183C45.8676 36.458 45.4751 36.458 45.2331 36.3183L42.6032 34.7999C42.3611 34.6601 42.3611 34.4335 42.6032 34.2938L43.0415 34.0407ZM46.1097 35.306L44.3564 34.2938L43.9181 34.5468L45.6714 35.5591L46.1097 35.306ZM43.8805 37.457C43.8805 37.6547 43.603 37.8149 43.2607 37.8149L39.7541 37.8149C39.4118 37.8149 39.1343 37.6547 39.1343 37.457L39.1343 36.4448C39.1343 36.2471 39.4118 36.0869 39.7541 36.0869C40.0965 36.0869 40.374 36.2471 40.374 36.4448L40.374 37.0992L43.2607 37.0992C43.603 37.0992 43.8805 37.2594 43.8805 37.457Z" fill="#142251"/>
</g>
<rect x="-2.98023e-08" y="0.5" width="35.9469" height="35.9469" rx="10.6347" transform="matrix(0.866025 0.5 -0.866025 0.5 42.1596 10.6255)" fill="white"/>
<rect x="-2.98023e-08" y="0.5" width="35.9469" height="35.9469" rx="10.6347" transform="matrix(0.866025 0.5 -0.866025 0.5 42.1596 10.6255)" stroke="#142251"/>
<g clip-path="url(#clip1_0_4904)">
<path d="M43.9181 25.559C44.1602 25.4192 44.5527 25.4192 44.7948 25.559L47.4246 27.0774C47.6667 27.2171 47.6667 27.4437 47.4246 27.5835L48.3013 28.0896C48.7854 28.3691 48.7854 28.8223 48.3013 29.1019L41.7265 32.8978C41.2424 33.1773 40.4574 33.1773 39.9733 32.8978L34.7135 29.861C34.2294 29.5815 34.2294 29.1283 34.7135 28.8488L41.2882 25.0529C41.7724 24.7734 42.5573 24.7734 43.0415 25.0529L43.9181 25.559ZM43.0415 26.0651L42.1649 25.559L35.5901 29.3549L40.8499 32.3917L47.4246 28.5957L46.548 28.0896L46.1097 28.3427C45.8676 28.4824 45.4751 28.4824 45.2331 28.3427L42.6032 26.8243C42.3611 26.6846 42.3611 26.458 42.6032 26.3182L43.0415 26.0651ZM46.1097 27.3304L44.3564 26.3182L43.9181 26.5713L45.6714 27.5835L46.1097 27.3304ZM43.8805 29.4815C43.8805 29.6791 43.603 29.8393 43.2607 29.8393L39.7541 29.8393C39.4118 29.8393 39.1343 29.6791 39.1343 29.4815L39.1343 28.4692C39.1343 28.2716 39.4118 28.1113 39.7541 28.1113C40.0965 28.1113 40.374 28.2716 40.374 28.4692L40.374 29.1236L43.2607 29.1236C43.603 29.1236 43.8805 29.2838 43.8805 29.4815Z" fill="#142251"/>
</g>
<rect x="-2.98023e-08" y="0.5" width="35.9469" height="35.9469" rx="10.6347" transform="matrix(0.866025 0.5 -0.866025 0.5 42.1596 0.25)" fill="white"/>
<rect x="-2.98023e-08" y="0.5" width="35.9469" height="35.9469" rx="10.6347" transform="matrix(0.866025 0.5 -0.866025 0.5 42.1596 0.25)" stroke="#142251"/>
<g clip-path="url(#clip2_0_4904)">
<path d="M43.9181 15.1835C44.1602 15.0438 44.5527 15.0438 44.7948 15.1835L47.4246 16.7019C47.6667 16.8416 47.6667 17.0682 47.4246 17.208L48.3013 17.7141C48.7854 17.9937 48.7854 18.4469 48.3013 18.7264L41.7265 22.5223C41.2424 22.8018 40.4574 22.8018 39.9733 22.5223L34.7135 19.4856C34.2294 19.206 34.2294 18.7528 34.7135 18.4733L41.2882 14.6774C41.7724 14.3979 42.5573 14.3979 43.0415 14.6774L43.9181 15.1835ZM43.0415 15.6896L42.1649 15.1835L35.5901 18.9794L40.8499 22.0162L47.4246 18.2203L46.548 17.7141L46.1097 17.9672C45.8676 18.107 45.4751 18.107 45.2331 17.9672L42.6032 16.4488C42.3611 16.3091 42.3611 16.0825 42.6032 15.9427L43.0415 15.6896ZM46.1097 16.9549L44.3564 15.9427L43.9181 16.1958L45.6714 17.208L46.1097 16.9549ZM43.8805 19.106C43.8805 19.3036 43.603 19.4639 43.2607 19.4639L39.7541 19.4639C39.4118 19.4639 39.1343 19.3036 39.1343 19.106L39.1343 18.0937C39.1343 17.8961 39.4118 17.7358 39.7541 17.7358C40.0965 17.7358 40.374 17.8961 40.374 18.0937L40.374 18.7481L43.2607 18.7481C43.603 18.7481 43.8805 18.9083 43.8805 19.106Z" fill="#142251"/>
</g>
<defs>
<filter id="filter0_i_0_4904" x="0" y="12.9062" width="83.2571" height="95.1511" filterUnits="userSpaceOnUse" color-interpolation-filters="sRGB">
<feFlood flood-opacity="0" result="BackgroundImageFix"/>
<feBlend mode="normal" in="SourceGraphic" in2="BackgroundImageFix" result="shape"/>
<feColorMatrix in="SourceAlpha" type="matrix" values="0 0 0 0 0 0 0 0 0 0 0 0 0 0 0 0 0 0 127 0" result="hardAlpha"/>
<feOffset/>
<feGaussianBlur stdDeviation="3.03674"/>
<feComposite in2="hardAlpha" operator="arithmetic" k2="-1" k3="1"/>
<feColorMatrix type="matrix" values="0 0 0 0 0.811765 0 0 0 0 0.823529 0 0 0 0 0.862745 0 0 0 1 0"/>
<feBlend mode="normal" in2="shape" result="effect1_innerShadow_0_4904"/>
</filter>
<filter id="filter1_i_0_4904" x="0" y="12.9062" width="83.2571" height="96.1634" filterUnits="userSpaceOnUse" color-interpolation-filters="sRGB">
<feFlood flood-opacity="0" result="BackgroundImageFix"/>
<feBlend mode="normal" in="SourceGraphic" in2="BackgroundImageFix" result="shape"/>
<feColorMatrix in="SourceAlpha" type="matrix" values="0 0 0 0 0 0 0 0 0 0 0 0 0 0 0 0 0 0 127 0" result="hardAlpha"/>
<feOffset dy="1.01224"/>
<feGaussianBlur stdDeviation="10.6286"/>
<feComposite in2="hardAlpha" operator="arithmetic" k2="-1" k3="1"/>
<feColorMatrix type="matrix" values="0 0 0 0 1 0 0 0 0 1 0 0 0 0 1 0 0 0 1 0"/>
<feBlend mode="normal" in2="shape" result="effect1_innerShadow_0_4904"/>
</filter>
<filter id="filter2_i_0_4904" x="0" y="12.9062" width="83.2571" height="48.5877" filterUnits="userSpaceOnUse" color-interpolation-filters="sRGB">
<feFlood flood-opacity="0" result="BackgroundImageFix"/>
<feBlend mode="normal" in="SourceGraphic" in2="BackgroundImageFix" result="shape"/>
<feColorMatrix in="SourceAlpha" type="matrix" values="0 0 0 0 0 0 0 0 0 0 0 0 0 0 0 0 0 0 127 0" result="hardAlpha"/>
<feOffset dy="1.01224"/>
<feGaussianBlur stdDeviation="2.78367"/>
<feComposite in2="hardAlpha" operator="arithmetic" k2="-1" k3="1"/>
<feColorMatrix type="matrix" values="0 0 0 0 1 0 0 0 0 1 0 0 0 0 1 0 0 0 0.25 0"/>
<feBlend mode="normal" in2="shape" result="effect1_innerShadow_0_4904"/>
</filter>
<clipPath id="clip0_0_4904">
<rect width="12.1469" height="12.1469" fill="white" transform="matrix(0.866025 0.5 -0.866025 0.5 41.7266 30.751)"/>
</clipPath>
<clipPath id="clip1_0_4904">
<rect width="12.1469" height="12.1469" fill="white" transform="matrix(0.866025 0.5 -0.866025 0.5 41.7266 22.7754)"/>
</clipPath>
<clipPath id="clip2_0_4904">
<rect width="12.1469" height="12.1469" fill="white" transform="matrix(0.866025 0.5 -0.866025 0.5 41.7266 12.3999)"/>
</clipPath>
</defs>
</svg>
