<svg width="84" height="106" viewBox="0 0 84 106" fill="none" xmlns="http://www.w3.org/2000/svg">
<path d="M0.00012207 34.1306L41.5715 57.8856L83.1429 34.1306L41.5715 10.3755L0.00012207 34.1306Z" fill="#E4E7F1"/>
<path d="M0.00012207 81.6407V34.1306L41.5715 57.8856V105.396L0.00012207 81.6407Z" fill="#E4E7F1"/>
<path d="M41.5715 57.8856V105.396L83.1429 81.6407V34.1306L41.5715 57.8856Z" fill="#E4E7F1"/>
<path d="M41.5715 57.8856V105.396L83.1429 81.6407V34.1306L41.5715 57.8856Z" fill="#E4E7F1"/>
<path d="M41.5715 57.8856V105.396L83.1429 81.6407V34.1306L41.5715 57.8856Z" fill="#E4E7F1"/>
<path d="M41.5715 57.8856V105.396L83.1429 81.6407V34.1306L41.5715 57.8856Z" fill="#E4E7F1"/>
<g filter="url(#filter0_i_0_4881)">
<path d="M0.00012207 34.1632L41.6287 57.951L83.2573 34.1632L41.6287 10.3755L0.00012207 34.1632Z" fill="#142251"/>
<path d="M0.00012207 81.7388V34.1632L41.6287 57.951V105.527L0.00012207 81.7388Z" fill="#142251"/>
<path d="M41.6287 57.951V105.527L83.2573 81.7388V34.1632L41.6287 57.951Z" fill="#142251"/>
<path d="M41.6287 57.951V105.527L83.2573 81.7388V34.1632L41.6287 57.951Z" fill="#142251"/>
<path d="M41.6287 57.951V105.527L83.2573 81.7388V34.1632L41.6287 57.951Z" fill="#142251"/>
<path d="M41.6287 57.951V105.527L83.2573 81.7388V34.1632L41.6287 57.951Z" fill="#142251"/>
</g>
<g filter="url(#filter1_i_0_4881)">
<path d="M0.00012207 34.1632L41.6287 57.951L83.2573 34.1632L41.6287 10.3755L0.00012207 34.1632Z" fill="#142251"/>
<path d="M0.00012207 34.1632L41.6287 57.951L83.2573 34.1632L41.6287 10.3755L0.00012207 34.1632Z" fill="white" fill-opacity="0.22"/>
<path d="M0.00012207 81.7388V34.1632L41.6287 57.951V105.527L0.00012207 81.7388Z" fill="#142251"/>
<path d="M0.00012207 81.7388V34.1632L41.6287 57.951V105.527L0.00012207 81.7388Z" fill="white" fill-opacity="0.22"/>
</g>
<g filter="url(#filter2_i_0_4881)">
<path d="M0.00012207 34.1632L41.6287 57.951L83.2573 34.1632L41.6287 10.3755L0.00012207 34.1632Z" fill="#142251"/>
</g>
<rect width="36.9469" height="36.9469" rx="11.1347" transform="matrix(0.866025 0.5 -0.866025 0.5 41.8672 15.1836)" fill="#142251"/>
<g clip-path="url(#clip0_0_4881)">
<path d="M47.9541 33.9198C47.9815 33.5562 47.4578 33.2304 46.7325 33.2304H39.6318C39.4482 33.2304 39.3312 33.2979 39.3312 33.4039C39.3312 33.51 39.4482 33.5775 39.6318 33.5775L45.5052 33.5775C45.8476 33.5775 46.1251 33.7377 46.1251 33.9354C46.1251 34.133 45.8476 34.2932 45.5052 34.2932L39.6318 34.2932C38.7635 34.2932 38.0915 33.9053 38.0915 33.4039C38.0915 32.9026 38.7635 32.5146 39.6318 32.5146L46.7325 32.5146C48.1067 32.5146 49.2455 33.1464 49.1933 33.9431C49.1862 34.7328 48.0951 35.3859 46.72 35.3561L38.4045 35.3561C36.4842 35.3561 34.9794 34.4873 34.9794 33.3786C34.9794 32.27 36.4842 31.4012 38.4045 31.4012L45.5052 31.4012C45.8476 31.4012 46.1251 31.5614 46.1251 31.759C46.1251 31.9567 45.8476 32.1169 45.5052 32.1169L38.4045 32.1169C37.1689 32.1169 36.2192 32.6653 36.2192 33.3786C36.2192 34.092 37.1689 34.6403 38.4045 34.6403L46.7325 34.6403C46.7415 34.6403 46.7505 34.6405 46.7594 34.6407C47.3893 34.6565 47.9536 34.3541 47.9536 33.9354C47.9536 33.9302 47.9538 33.925 47.9541 33.9198Z" fill="white"/>
</g>
<rect y="0.5" width="35.9469" height="35.9469" rx="10.6347" transform="matrix(0.866025 0.5 -0.866025 0.5 42.3002 15.4336)" fill="#E4E7F1"/>
<rect y="0.5" width="35.9469" height="35.9469" rx="10.6347" transform="matrix(0.866025 0.5 -0.866025 0.5 42.3002 15.4336)" stroke="#142251"/>
<g clip-path="url(#clip1_0_4881)">
<path d="M47.9541 33.9198C47.9815 33.5562 47.4578 33.2304 46.7325 33.2304H39.6318C39.4482 33.2304 39.3312 33.2979 39.3312 33.4039C39.3312 33.51 39.4482 33.5775 39.6318 33.5775L45.5052 33.5775C45.8476 33.5775 46.1251 33.7377 46.1251 33.9354C46.1251 34.133 45.8476 34.2932 45.5052 34.2932L39.6318 34.2932C38.7635 34.2932 38.0915 33.9053 38.0915 33.4039C38.0915 32.9026 38.7635 32.5146 39.6318 32.5146L46.7325 32.5146C48.1067 32.5146 49.2455 33.1464 49.1933 33.9431C49.1862 34.7328 48.0951 35.3859 46.72 35.3561L38.4045 35.3561C36.4842 35.3561 34.9794 34.4873 34.9794 33.3786C34.9794 32.27 36.4842 31.4012 38.4045 31.4012L45.5052 31.4012C45.8476 31.4012 46.1251 31.5614 46.1251 31.759C46.1251 31.9567 45.8476 32.1169 45.5052 32.1169L38.4045 32.1169C37.1689 32.1169 36.2192 32.6653 36.2192 33.3786C36.2192 34.092 37.1689 34.6403 38.4045 34.6403L46.7325 34.6403C46.7415 34.6403 46.7505 34.6405 46.7594 34.6407C47.3893 34.6565 47.9536 34.3541 47.9536 33.9354C47.9536 33.9302 47.9538 33.925 47.9541 33.9198Z" fill="white"/>
</g>
<rect y="0.5" width="35.9469" height="35.9469" rx="10.6347" transform="matrix(0.866025 0.5 -0.866025 0.5 42.3002 7.8418)" fill="white"/>
<rect y="0.5" width="35.9469" height="35.9469" rx="10.6347" transform="matrix(0.866025 0.5 -0.866025 0.5 42.3002 7.8418)" stroke="#142251"/>
<g clip-path="url(#clip2_0_4881)">
<path d="M47.9541 26.328C47.9815 25.9644 47.4578 25.6386 46.7325 25.6386H39.6318C39.4482 25.6386 39.3312 25.7061 39.3312 25.8121C39.3312 25.9182 39.4482 25.9857 39.6318 25.9857L45.5052 25.9857C45.8476 25.9857 46.1251 26.1459 46.1251 26.3436C46.1251 26.5412 45.8476 26.7015 45.5052 26.7015L39.6318 26.7015C38.7635 26.7015 38.0915 26.3135 38.0915 25.8121C38.0915 25.3108 38.7635 24.9228 39.6318 24.9228L46.7325 24.9228C48.1067 24.9228 49.2455 25.5546 49.1933 26.3513C49.1862 27.141 48.0951 27.7941 46.72 27.7643L38.4045 27.7643C36.4842 27.7643 34.9794 26.8955 34.9794 25.7868C34.9794 24.6782 36.4842 23.8094 38.4045 23.8094L45.5052 23.8094C45.8476 23.8094 46.1251 23.9696 46.1251 24.1672C46.1251 24.3649 45.8476 24.5251 45.5052 24.5251L38.4045 24.5251C37.1689 24.5251 36.2192 25.0735 36.2192 25.7868C36.2192 26.5002 37.1689 27.0485 38.4045 27.0485L46.7325 27.0485C46.7415 27.0485 46.7505 27.0487 46.7594 27.0489C47.3893 27.0647 47.9536 26.7623 47.9536 26.3436C47.9536 26.3384 47.9538 26.3332 47.9541 26.328Z" fill="white"/>
</g>
<rect width="36.9469" height="36.9469" rx="11.1347" transform="matrix(0.866025 0.5 -0.866025 0.5 41.8672 0)" fill="#142251"/>
<path d="M38.7146 14.22L38.4947 18.5423L52.1062 18.3114" stroke="white" stroke-width="1.26531" stroke-linecap="round"/>
<defs>
<filter id="filter0_i_0_4881" x="0.00012207" y="10.3755" width="83.2571" height="95.1511" filterUnits="userSpaceOnUse" color-interpolation-filters="sRGB">
<feFlood flood-opacity="0" result="BackgroundImageFix"/>
<feBlend mode="normal" in="SourceGraphic" in2="BackgroundImageFix" result="shape"/>
<feColorMatrix in="SourceAlpha" type="matrix" values="0 0 0 0 0 0 0 0 0 0 0 0 0 0 0 0 0 0 127 0" result="hardAlpha"/>
<feOffset/>
<feGaussianBlur stdDeviation="10.6286"/>
<feComposite in2="hardAlpha" operator="arithmetic" k2="-1" k3="1"/>
<feColorMatrix type="matrix" values="0 0 0 0 0.811765 0 0 0 0 0.823529 0 0 0 0 0.862745 0 0 0 1 0"/>
<feBlend mode="normal" in2="shape" result="effect1_innerShadow_0_4881"/>
</filter>
<filter id="filter1_i_0_4881" x="0.00012207" y="10.3755" width="83.2571" height="96.1634" filterUnits="userSpaceOnUse" color-interpolation-filters="sRGB">
<feFlood flood-opacity="0" result="BackgroundImageFix"/>
<feBlend mode="normal" in="SourceGraphic" in2="BackgroundImageFix" result="shape"/>
<feColorMatrix in="SourceAlpha" type="matrix" values="0 0 0 0 0 0 0 0 0 0 0 0 0 0 0 0 0 0 127 0" result="hardAlpha"/>
<feOffset dy="1.01224"/>
<feGaussianBlur stdDeviation="10.6286"/>
<feComposite in2="hardAlpha" operator="arithmetic" k2="-1" k3="1"/>
<feColorMatrix type="matrix" values="0 0 0 0 1 0 0 0 0 1 0 0 0 0 1 0 0 0 1 0"/>
<feBlend mode="normal" in2="shape" result="effect1_innerShadow_0_4881"/>
</filter>
<filter id="filter2_i_0_4881" x="0.00012207" y="10.3755" width="83.2571" height="48.5877" filterUnits="userSpaceOnUse" color-interpolation-filters="sRGB">
<feFlood flood-opacity="0" result="BackgroundImageFix"/>
<feBlend mode="normal" in="SourceGraphic" in2="BackgroundImageFix" result="shape"/>
<feColorMatrix in="SourceAlpha" type="matrix" values="0 0 0 0 0 0 0 0 0 0 0 0 0 0 0 0 0 0 127 0" result="hardAlpha"/>
<feOffset dy="1.01224"/>
<feGaussianBlur stdDeviation="2.78367"/>
<feComposite in2="hardAlpha" operator="arithmetic" k2="-1" k3="1"/>
<feColorMatrix type="matrix" values="0 0 0 0 1 0 0 0 0 1 0 0 0 0 1 0 0 0 0.25 0"/>
<feBlend mode="normal" in2="shape" result="effect1_innerShadow_0_4881"/>
</filter>
<clipPath id="clip0_0_4881">
<rect width="12.1469" height="12.1469" fill="white" transform="matrix(0.866025 0.5 -0.866025 0.5 41.8672 27.5835)"/>
</clipPath>
<clipPath id="clip1_0_4881">
<rect width="12.1469" height="12.1469" fill="white" transform="matrix(0.866025 0.5 -0.866025 0.5 41.8672 27.5835)"/>
</clipPath>
<clipPath id="clip2_0_4881">
<rect width="12.1469" height="12.1469" fill="white" transform="matrix(0.866025 0.5 -0.866025 0.5 41.8672 19.9917)"/>
</clipPath>
</defs>
</svg>
