<svg width="84" height="98" viewBox="0 0 84 98" fill="none" xmlns="http://www.w3.org/2000/svg">
<path d="M0 26.5388L41.5714 50.2938L83.1428 26.5388L41.5714 2.78369L0 26.5388Z" fill="#E4E7F1"/>
<path d="M0 74.0489V26.5388L41.5714 50.2938V97.804L0 74.0489Z" fill="#E4E7F1"/>
<path d="M41.5714 50.2938V97.804L83.1428 74.0489V26.5388L41.5714 50.2938Z" fill="#E4E7F1"/>
<path d="M41.5714 50.2938V97.804L83.1428 74.0489V26.5388L41.5714 50.2938Z" fill="#E4E7F1"/>
<path d="M41.5714 50.2938V97.804L83.1428 74.0489V26.5388L41.5714 50.2938Z" fill="#E4E7F1"/>
<path d="M41.5714 50.2938V97.804L83.1428 74.0489V26.5388L41.5714 50.2938Z" fill="#E4E7F1"/>
<g filter="url(#filter0_i_0_5397)">
<path d="M0 26.5714L41.6286 50.3592L83.2571 26.5714L41.6286 2.78369L0 26.5714Z" fill="#E4E7F1"/>
<path d="M0 74.147V26.5714L41.6286 50.3592V97.9347L0 74.147Z" fill="#E4E7F1"/>
<path d="M41.6286 50.3592V97.9347L83.2571 74.147V26.5714L41.6286 50.3592Z" fill="#E4E7F1"/>
<path d="M41.6286 50.3592V97.9347L83.2571 74.147V26.5714L41.6286 50.3592Z" fill="#E4E7F1"/>
<path d="M41.6286 50.3592V97.9347L83.2571 74.147V26.5714L41.6286 50.3592Z" fill="#E4E7F1"/>
<path d="M41.6286 50.3592V97.9347L83.2571 74.147V26.5714L41.6286 50.3592Z" fill="#E4E7F1"/>
</g>
<g filter="url(#filter1_i_0_5397)">
<path d="M0 26.5714L41.6286 50.3592L83.2571 26.5714L41.6286 2.78369L0 26.5714Z" fill="#AFB4C4"/>
<path d="M0 26.5714L41.6286 50.3592L83.2571 26.5714L41.6286 2.78369L0 26.5714Z" fill="white" fill-opacity="0.4"/>
<path d="M0 74.147V26.5714L41.6286 50.3592V97.9347L0 74.147Z" fill="#AFB4C4"/>
<path d="M0 74.147V26.5714L41.6286 50.3592V97.9347L0 74.147Z" fill="white" fill-opacity="0.4"/>
</g>
<g filter="url(#filter2_i_0_5397)">
<path d="M0 26.5714L41.6286 50.3592L83.2571 26.5714L41.6286 2.78369L0 26.5714Z" fill="#F2F3F8"/>
</g>
<rect width="36.9469" height="36.9469" rx="11.1347" transform="matrix(0.866025 0.5 -0.866025 0.5 41.8672 8.604)" fill="#E4E7F1"/>
<path d="M39.0557 25.3061C39.0557 25.1084 39.3333 24.9482 39.6756 24.9482L44.9354 24.9482C45.0998 24.9482 45.2574 24.9859 45.3737 25.053C45.4899 25.1201 45.5552 25.2112 45.5552 25.3061L45.5552 28.3428C45.5552 28.5405 45.2777 28.7007 44.9354 28.7007C44.593 28.7007 44.3155 28.5405 44.3155 28.3428L44.3155 26.1701L39.2373 29.102C38.9952 29.2418 38.6027 29.2418 38.3607 29.102C38.1186 28.9622 38.1186 28.7356 38.3607 28.5959L43.4389 25.664L39.6756 25.664C39.3333 25.664 39.0557 25.5037 39.0557 25.3061Z" fill="#142251"/>
<rect x="-2.98023e-08" y="0.5" width="35.9469" height="35.9469" rx="10.6347" transform="matrix(0.866025 0.5 -0.866025 0.5 42.2983 0.25)" fill="white"/>
<rect x="-2.98023e-08" y="0.5" width="35.9469" height="35.9469" rx="10.6347" transform="matrix(0.866025 0.5 -0.866025 0.5 42.2983 0.25)" stroke="#142251"/>
<path d="M39.0538 16.7021C39.0538 16.5044 39.3314 16.3442 39.6737 16.3442L44.9335 16.3442C45.0979 16.3442 45.2556 16.3819 45.3718 16.449C45.488 16.5161 45.5534 16.6072 45.5534 16.7021L45.5534 19.7388C45.5534 19.9365 45.2758 20.0967 44.9335 20.0967C44.5911 20.0967 44.3136 19.9365 44.3136 19.7388L44.3136 17.5661L39.2354 20.498C38.9933 20.6378 38.6008 20.6378 38.3588 20.498C38.1167 20.3582 38.1167 20.1316 38.3588 19.9919L43.437 17.06L39.6737 17.06C39.3314 17.06 39.0538 16.8997 39.0538 16.7021Z" fill="#142251"/>
<defs>
<filter id="filter0_i_0_5397" x="0" y="2.78369" width="83.2571" height="95.1511" filterUnits="userSpaceOnUse" color-interpolation-filters="sRGB">
<feFlood flood-opacity="0" result="BackgroundImageFix"/>
<feBlend mode="normal" in="SourceGraphic" in2="BackgroundImageFix" result="shape"/>
<feColorMatrix in="SourceAlpha" type="matrix" values="0 0 0 0 0 0 0 0 0 0 0 0 0 0 0 0 0 0 127 0" result="hardAlpha"/>
<feOffset/>
<feGaussianBlur stdDeviation="3.03674"/>
<feComposite in2="hardAlpha" operator="arithmetic" k2="-1" k3="1"/>
<feColorMatrix type="matrix" values="0 0 0 0 0.811765 0 0 0 0 0.823529 0 0 0 0 0.862745 0 0 0 1 0"/>
<feBlend mode="normal" in2="shape" result="effect1_innerShadow_0_5397"/>
</filter>
<filter id="filter1_i_0_5397" x="0" y="2.78369" width="83.2571" height="96.1634" filterUnits="userSpaceOnUse" color-interpolation-filters="sRGB">
<feFlood flood-opacity="0" result="BackgroundImageFix"/>
<feBlend mode="normal" in="SourceGraphic" in2="BackgroundImageFix" result="shape"/>
<feColorMatrix in="SourceAlpha" type="matrix" values="0 0 0 0 0 0 0 0 0 0 0 0 0 0 0 0 0 0 127 0" result="hardAlpha"/>
<feOffset dy="1.01224"/>
<feGaussianBlur stdDeviation="10.6286"/>
<feComposite in2="hardAlpha" operator="arithmetic" k2="-1" k3="1"/>
<feColorMatrix type="matrix" values="0 0 0 0 1 0 0 0 0 1 0 0 0 0 1 0 0 0 1 0"/>
<feBlend mode="normal" in2="shape" result="effect1_innerShadow_0_5397"/>
</filter>
<filter id="filter2_i_0_5397" x="0" y="2.78369" width="83.2571" height="48.5877" filterUnits="userSpaceOnUse" color-interpolation-filters="sRGB">
<feFlood flood-opacity="0" result="BackgroundImageFix"/>
<feBlend mode="normal" in="SourceGraphic" in2="BackgroundImageFix" result="shape"/>
<feColorMatrix in="SourceAlpha" type="matrix" values="0 0 0 0 0 0 0 0 0 0 0 0 0 0 0 0 0 0 127 0" result="hardAlpha"/>
<feOffset dy="1.01224"/>
<feGaussianBlur stdDeviation="2.78367"/>
<feComposite in2="hardAlpha" operator="arithmetic" k2="-1" k3="1"/>
<feColorMatrix type="matrix" values="0 0 0 0 1 0 0 0 0 1 0 0 0 0 1 0 0 0 0.25 0"/>
<feBlend mode="normal" in2="shape" result="effect1_innerShadow_0_5397"/>
</filter>
</defs>
</svg>
