<svg height="auto" viewBox="0 0 2000 1000" xmlns="http://www.w3.org/2000/svg"><path d="M0 1000h80V116.17q0-4-4-4H4q-4 0-4 4ZM100 1000h80V414.596q0-4-4-4h-72q-4 0-4 4ZM200 1000h80V434.266q0-4-4-4h-72q-4 0-4 4ZM300 1000h80V353.18q0-4-4-4h-72q-4 0-4 4ZM400 1000h80V353.49q0-4-4-4h-72q-4 0-4 4ZM500 1000h80V530.708q0-4-4-4h-72q-4 0-4 4ZM600 1000h80V770.777q0-4-4-4h-72q-4 0-4 4ZM700 1000h80V273.37q0-4-4-4h-72q-4 0-4 4ZM800 1000h80V626.156q0-4-4-4h-72q-4 0-4 4ZM900 1000h80V477.759q0-4-4-4h-72q-4 0-4 4ZM1000 1000h80V414.576q0-4-4-4h-72q-4 0-4 4ZM1100 1000h80V413.478q0-4-4-4h-72q-4 0-4 4ZM1200 1000h80V528.805q0-4-4-4h-72q-4 0-4 4ZM1300 1000h80V436.079q0-4-4-4h-72q-4 0-4 4ZM1400 1000h80V323.895q0-4-4-4h-72q-4 0-4 4ZM1500 1000h80V134.355q0-4-4-4h-72q-4 0-4 4ZM1600 1000h80V382.89q0-4-4-4h-72q-4 0-4 4ZM1700 1000h80V379.993q0-4-4-4h-72q-4 0-4 4ZM1800 1000h80V692.336q0-4-4-4h-72q-4 0-4 4ZM1900 1000h80V216.285q0-4-4-4h-72q-4 0-4 4Z" fill="#444cf7"/></svg>