<svg height="auto" viewBox="0 0 2000 1000" xmlns="http://www.w3.org/2000/svg"><path d="M0 1000h80M100 1000h80v-25.009q0-4-4-4h-72q-4 0-4 4ZM200 1000h80v-87.087q0-4-4-4h-72q-4 0-4 4ZM300 1000h80v-86.102q0-4-4-4h-72q-4 0-4 4ZM400 1000h80V889.325q0-4-4-4h-72q-4 0-4 4ZM500 1000h80V761.954q0-4-4-4h-72q-4 0-4 4ZM600 1000h80V718.157q0-4-4-4h-72q-4 0-4 4ZM700 1000h80V699.852q0-4-4-4h-72q-4 0-4 4ZM800 1000h80V660.117q0-4-4-4h-72q-4 0-4 4ZM900 1000h80V569.917q0-4-4-4h-72q-4 0-4 4ZM1000 1000h80V573.622q0-4-4-4h-72q-4 0-4 4ZM1100 1000h80V673.533q0-4-4-4h-72q-4 0-4 4ZM1200 1000h80V503.585q0-4-4-4h-72q-4 0-4 4ZM1300 1000h80V422.566q0-4-4-4h-72q-4 0-4 4ZM1400 1000h80V463.835q0-4-4-4h-72q-4 0-4 4ZM1500 1000h80V312.968q0-4-4-4h-72q-4 0-4 4ZM1600 1000h80V336.28q0-4-4-4h-72q-4 0-4 4ZM1700 1000h80V313.334q0-4-4-4h-72q-4 0-4 4ZM1800 1000h80V215.477q0-4-4-4h-72q-4 0-4 4ZM1900 1000h80V380.228q0-4-4-4h-72q-4 0-4 4Z" fill="#444cf7"/></svg>