<svg height="auto" viewBox="0 0 2000 1000" xmlns="http://www.w3.org/2000/svg"><path d="M0 1000h80V18.507q0-4-4-4H4q-4 0-4 4ZM100 1000h80V53.144q0-4-4-4h-72q-4 0-4 4ZM200 1000h80V71.147q0-4-4-4h-72q-4 0-4 4ZM300 1000h80V152.985q0-4-4-4h-72q-4 0-4 4ZM400 1000h80V214.031q0-4-4-4h-72q-4 0-4 4ZM500 1000h80V203.174q0-4-4-4h-72q-4 0-4 4ZM600 1000h80V244.918q0-4-4-4h-72q-4 0-4 4ZM700 1000h80V335.519q0-4-4-4h-72q-4 0-4 4ZM800 1000h80V226.776q0-4-4-4h-72q-4 0-4 4ZM900 1000h80V424.913q0-4-4-4h-72q-4 0-4 4ZM1000 1000h80V395.54q0-4-4-4h-72q-4 0-4 4ZM1100 1000h80V404.865q0-4-4-4h-72q-4 0-4 4ZM1200 1000h80V362.57q0-4-4-4h-72q-4 0-4 4ZM1300 1000h80V359.308q0-4-4-4h-72q-4 0-4 4ZM1400 1000h80V671.679q0-4-4-4h-72q-4 0-4 4ZM1500 1000h80V770.61q0-4-4-4h-72q-4 0-4 4ZM1600 1000h80V830.33q0-4-4-4h-72q-4 0-4 4ZM1700 1000h80V828.987q0-4-4-4h-72q-4 0-4 4ZM1800 1000h80V659.542q0-4-4-4h-72q-4 0-4 4ZM1900 1000h80V804.768q0-4-4-4h-72q-4 0-4 4Z" fill="#444cf7"/></svg>