<svg height="auto" viewBox="0 0 2000 1000" xmlns="http://www.w3.org/2000/svg"><path d="M0 14.507c21 6.928 63 24.109 105 34.637 42 10.528 63-1.965 105 18.003 42 19.969 63 53.262 105 81.838 42 28.577 63 51.009 105 61.046 42 10.038 63-17.035 105-10.857 42 6.177 63 15.275 105 41.744s63 94.229 105 90.6c42-3.628 63-126.621 105-108.742 42 17.878 63 164.384 105 198.137 42 33.753 63-25.364 105-29.373 42-4.01 63 15.919 105 9.325 42-6.594 63-33.183 105-42.295 42-9.111 63-65.084 105-3.262 42 61.821 63 230.11 105 312.37 42 82.261 63 67.201 105 98.932 42 31.73 63 48.045 105 59.72 42 11.676 63 32.814 105-1.343 42-34.158 63-164.6 105-169.445 42-4.843 84 116.18 105 145.226l5 199.232H0Z" fill="#444cf71a"/><path d="M0 14.507c21 6.928 63 24.109 105 34.637 42 10.528 63-1.965 105 18.003 42 19.969 63 53.262 105 81.838 42 28.577 63 51.009 105 61.046 42 10.038 63-17.035 105-10.857 42 6.177 63 15.275 105 41.744s63 94.229 105 90.6c42-3.628 63-126.621 105-108.742 42 17.878 63 164.384 105 198.137 42 33.753 63-25.364 105-29.373 42-4.01 63 15.919 105 9.325 42-6.594 63-33.183 105-42.295 42-9.111 63-65.084 105-3.262 42 61.821 63 230.11 105 312.37 42 82.261 63 67.201 105 98.932 42 31.73 63 48.045 105 59.72 42 11.676 63 32.814 105-1.343 42-34.158 63-164.6 105-169.445 42-4.843 84 116.18 105 145.226" fill="none" stroke="#444cf7" stroke-width="4"/></svg>