<svg height="auto" viewBox="0 0 2000 1000" xmlns="http://www.w3.org/2000/svg"><path d="M0 994.67c21-5.917 63-12.328 105-29.585s63-38.71 105-56.7c42-17.99 63-21.63 105-33.248 42-11.619 63-5.358 105-24.847 42-19.488 63-59.39 105-72.594 42-13.204 63 31.302 105 6.574 42-24.727 63-101 105-130.21 42-29.211 63-4.118 105-15.843 42-11.724 63-34.3 105-42.78 42-8.48 63 16.759 105 .38s63-42.355 105-82.273 63-113.659 105-117.317c42-3.659 63 66.022 105 99.024 42 33.003 63 83.082 105 65.989 42-17.093 63-137.633 105-151.453 42-13.82 63 59.42 105 82.35 42 22.932 63 61.94 105 32.304 42-29.637 63-84.079 105-180.488s84-241.245 105-301.557l5 957.604H0Z" fill="#444cf71a"/><path d="M0 994.67c21-5.917 63-12.328 105-29.585s63-38.71 105-56.7c42-17.99 63-21.63 105-33.248 42-11.619 63-5.358 105-24.847 42-19.488 63-59.39 105-72.594 42-13.204 63 31.302 105 6.574 42-24.727 63-101 105-130.21 42-29.211 63-4.118 105-15.843 42-11.724 63-34.3 105-42.78 42-8.48 63 16.759 105 .38s63-42.355 105-82.273 63-113.659 105-117.317c42-3.659 63 66.022 105 99.024 42 33.003 63 83.082 105 65.989 42-17.093 63-137.633 105-151.453 42-13.82 63 59.42 105 82.35 42 22.932 63 61.94 105 32.304 42-29.637 63-84.079 105-180.488s84-241.245 105-301.557" fill="none" stroke="#444cf7" stroke-width="4"/></svg>