<svg height="auto" viewBox="0 0 2000 1000" xmlns="http://www.w3.org/2000/svg"><path d="M0 246.508c21 90.172 63 372.774 105 450.864 42 78.09 63-25.008 105-60.415s63-132.01 105-116.62c42 15.389 63 155.255 105 193.568 42 38.312 63 91.93 105-2.007 42-93.936 63-374.467 105-467.676 42-93.21 63-104.86 105 1.628s63 509.996 105 530.813c42 20.816 63-332.801 105-426.731s63-53.693 105-42.92c42 10.773 63-1.516 105 96.784 42 98.3 63 434.277 105 394.717s63-591.726 105-592.516c42-.79 63 579.248 105 588.565 42 9.317 63-501.654 105-541.981s63 289.575 105 340.346c42 50.771 63-6.404 105-86.49 42-80.085 63-309.63 105-313.938 42-4.31 84 233.916 105 292.395l5 515.106H0Z" fill="#444cf71a"/><path d="M0 246.508c21 90.172 63 372.774 105 450.864 42 78.09 63-25.008 105-60.415s63-132.01 105-116.62c42 15.389 63 155.255 105 193.568 42 38.312 63 91.93 105-2.007 42-93.936 63-374.467 105-467.676 42-93.21 63-104.86 105 1.628s63 509.996 105 530.813c42 20.816 63-332.801 105-426.731s63-53.693 105-42.92c42 10.773 63-1.516 105 96.784 42 98.3 63 434.277 105 394.717s63-591.726 105-592.516c42-.79 63 579.248 105 588.565 42 9.317 63-501.654 105-541.981s63 289.575 105 340.346c42 50.771 63-6.404 105-86.49 42-80.085 63-309.63 105-313.938 42-4.31 84 233.916 105 292.395" fill="none" stroke="#444cf7" stroke-width="4"/></svg>